<svg width="580" height="340" viewBox="0 0 580 340" fill="none" xmlns="http://www.w3.org/2000/svg">
<g filter="url(#filter0_d)">
<rect x="20" y="12" width="540" height="300" rx="8" fill="white"/>
</g>
<path d="M20 20C20 15.5817 23.5817 12 28 12H552C556.418 12 560 15.5817 560 20V216H20V20Z" fill="#F8F8F7"/>
<rect x="184" y="240" width="142" height="40" rx="6" fill="#4262FF"/>
<path d="M205.77 259.764H209.167V264.624C208.638 264.793 208.101 264.92 207.554 265.007C207.007 265.093 206.373 265.137 205.653 265.137C204.14 265.137 202.962 264.688 202.119 263.79C201.276 262.888 200.854 261.625 200.854 260.003C200.854 258.964 201.062 258.055 201.477 257.275C201.896 256.492 202.497 255.895 203.281 255.484C204.065 255.07 204.983 254.862 206.036 254.862C207.103 254.862 208.096 255.058 209.017 255.45L208.565 256.476C207.663 256.093 206.795 255.901 205.961 255.901C204.744 255.901 203.794 256.264 203.11 256.988C202.427 257.713 202.085 258.718 202.085 260.003C202.085 261.352 202.413 262.375 203.069 263.072C203.73 263.77 204.699 264.118 205.975 264.118C206.667 264.118 207.344 264.038 208.005 263.879V260.803H205.77V259.764ZM214.567 265.137C213.46 265.137 212.585 264.799 211.942 264.125C211.304 263.451 210.985 262.514 210.985 261.315C210.985 260.108 211.282 259.148 211.874 258.438C212.471 257.727 213.271 257.371 214.273 257.371C215.212 257.371 215.955 257.681 216.502 258.301C217.049 258.916 217.322 259.729 217.322 260.741V261.459H212.161C212.184 262.339 212.405 263.006 212.824 263.462C213.248 263.918 213.843 264.146 214.608 264.146C215.415 264.146 216.213 263.977 217.001 263.64V264.651C216.6 264.825 216.219 264.948 215.859 265.021C215.504 265.098 215.073 265.137 214.567 265.137ZM214.26 258.321C213.658 258.321 213.177 258.517 212.817 258.909C212.462 259.301 212.252 259.843 212.188 260.536H216.105C216.105 259.821 215.946 259.274 215.627 258.896C215.308 258.513 214.852 258.321 214.26 258.321ZM221.684 264.2C221.884 264.2 222.078 264.187 222.265 264.159C222.451 264.127 222.6 264.095 222.709 264.063V264.932C222.586 264.991 222.404 265.039 222.162 265.075C221.925 265.116 221.711 265.137 221.52 265.137C220.07 265.137 219.346 264.373 219.346 262.847V258.39H218.272V257.843L219.346 257.371L219.824 255.771H220.48V257.508H222.654V258.39H220.48V262.799C220.48 263.25 220.588 263.596 220.802 263.838C221.016 264.079 221.31 264.2 221.684 264.2ZM231.015 265.137C229.907 265.137 229.032 264.799 228.39 264.125C227.752 263.451 227.433 262.514 227.433 261.315C227.433 260.108 227.729 259.148 228.321 258.438C228.918 257.727 229.718 257.371 230.721 257.371C231.66 257.371 232.402 257.681 232.949 258.301C233.496 258.916 233.77 259.729 233.77 260.741V261.459H228.608C228.631 262.339 228.852 263.006 229.271 263.462C229.695 263.918 230.29 264.146 231.056 264.146C231.862 264.146 232.66 263.977 233.448 263.64V264.651C233.047 264.825 232.667 264.948 232.307 265.021C231.951 265.098 231.521 265.137 231.015 265.137ZM230.707 258.321C230.105 258.321 229.625 258.517 229.265 258.909C228.909 259.301 228.7 259.843 228.636 260.536H232.553C232.553 259.821 232.393 259.274 232.074 258.896C231.755 258.513 231.299 258.321 230.707 258.321ZM245.261 265V260.126C245.261 259.529 245.133 259.082 244.878 258.786C244.623 258.485 244.226 258.335 243.688 258.335C242.982 258.335 242.46 258.538 242.123 258.943C241.786 259.349 241.617 259.973 241.617 260.816V265H240.482V260.126C240.482 259.529 240.355 259.082 240.1 258.786C239.844 258.485 239.446 258.335 238.903 258.335C238.192 258.335 237.671 258.549 237.338 258.978C237.01 259.401 236.846 260.099 236.846 261.069V265H235.711V257.508H236.634L236.818 258.533H236.873C237.087 258.169 237.388 257.884 237.775 257.679C238.167 257.474 238.605 257.371 239.088 257.371C240.259 257.371 241.025 257.795 241.385 258.643H241.439C241.663 258.251 241.986 257.941 242.41 257.713C242.834 257.485 243.317 257.371 243.859 257.371C244.707 257.371 245.34 257.59 245.76 258.027C246.184 258.46 246.396 259.155 246.396 260.112V265H245.261ZM253.348 265L253.122 263.934H253.067C252.694 264.403 252.32 264.722 251.946 264.891C251.577 265.055 251.115 265.137 250.559 265.137C249.816 265.137 249.232 264.945 248.809 264.562C248.389 264.18 248.18 263.635 248.18 262.929C248.18 261.416 249.39 260.623 251.81 260.55L253.081 260.509V260.044C253.081 259.456 252.953 259.023 252.698 258.745C252.448 258.463 252.044 258.321 251.488 258.321C250.864 258.321 250.158 258.513 249.369 258.896L249.021 258.027C249.39 257.827 249.793 257.67 250.23 257.556C250.673 257.442 251.115 257.385 251.557 257.385C252.45 257.385 253.111 257.583 253.539 257.979C253.972 258.376 254.188 259.012 254.188 259.887V265H253.348ZM250.784 264.2C251.491 264.2 252.044 264.007 252.445 263.619C252.851 263.232 253.054 262.689 253.054 261.992V261.315L251.919 261.363C251.017 261.395 250.365 261.536 249.964 261.787C249.567 262.033 249.369 262.418 249.369 262.942C249.369 263.353 249.492 263.665 249.738 263.879C249.989 264.093 250.338 264.2 250.784 264.2ZM257.668 265H256.533V257.508H257.668V265ZM256.438 255.478C256.438 255.218 256.501 255.029 256.629 254.91C256.757 254.787 256.916 254.726 257.107 254.726C257.29 254.726 257.447 254.787 257.579 254.91C257.711 255.033 257.777 255.222 257.777 255.478C257.777 255.733 257.711 255.924 257.579 256.052C257.447 256.175 257.29 256.236 257.107 256.236C256.916 256.236 256.757 256.175 256.629 256.052C256.501 255.924 256.438 255.733 256.438 255.478ZM261.209 265H260.074V254.363H261.209V265ZM268.448 262.956C268.448 263.653 268.188 264.191 267.669 264.569C267.149 264.948 266.42 265.137 265.481 265.137C264.488 265.137 263.713 264.979 263.157 264.665V263.612C263.517 263.795 263.902 263.938 264.312 264.043C264.727 264.148 265.126 264.2 265.509 264.2C266.101 264.2 266.557 264.107 266.876 263.92C267.195 263.729 267.354 263.439 267.354 263.052C267.354 262.76 267.227 262.512 266.972 262.307C266.721 262.097 266.229 261.851 265.495 261.568C264.798 261.309 264.301 261.083 264.005 260.892C263.713 260.696 263.494 260.475 263.349 260.229C263.207 259.982 263.137 259.688 263.137 259.347C263.137 258.736 263.385 258.255 263.882 257.904C264.379 257.549 265.06 257.371 265.926 257.371C266.732 257.371 267.521 257.535 268.291 257.863L267.888 258.786C267.136 258.476 266.454 258.321 265.844 258.321C265.306 258.321 264.9 258.406 264.627 258.574C264.354 258.743 264.217 258.975 264.217 259.271C264.217 259.472 264.267 259.643 264.367 259.784C264.472 259.925 264.638 260.06 264.866 260.188C265.094 260.315 265.532 260.5 266.179 260.741C267.067 261.065 267.667 261.391 267.977 261.719C268.291 262.047 268.448 262.459 268.448 262.956ZM276.932 265.137C275.847 265.137 275.006 264.804 274.409 264.139C273.817 263.469 273.521 262.523 273.521 261.302C273.521 260.049 273.821 259.08 274.423 258.396C275.029 257.713 275.89 257.371 277.007 257.371C277.367 257.371 277.727 257.41 278.087 257.487C278.447 257.565 278.729 257.656 278.935 257.761L278.586 258.725C278.335 258.624 278.062 258.542 277.766 258.479C277.469 258.41 277.207 258.376 276.979 258.376C275.457 258.376 274.696 259.347 274.696 261.288C274.696 262.209 274.881 262.915 275.25 263.407C275.624 263.899 276.175 264.146 276.904 264.146C277.529 264.146 278.169 264.011 278.825 263.742V264.747C278.324 265.007 277.693 265.137 276.932 265.137ZM287.076 261.247C287.076 262.468 286.769 263.423 286.153 264.111C285.538 264.795 284.688 265.137 283.604 265.137C282.934 265.137 282.339 264.979 281.819 264.665C281.3 264.351 280.899 263.899 280.616 263.312C280.334 262.724 280.192 262.035 280.192 261.247C280.192 260.026 280.498 259.076 281.108 258.396C281.719 257.713 282.567 257.371 283.651 257.371C284.7 257.371 285.531 257.72 286.146 258.417C286.766 259.114 287.076 260.058 287.076 261.247ZM281.368 261.247C281.368 262.204 281.56 262.933 281.942 263.435C282.325 263.936 282.888 264.187 283.631 264.187C284.374 264.187 284.937 263.938 285.319 263.441C285.707 262.94 285.9 262.209 285.9 261.247C285.9 260.295 285.707 259.572 285.319 259.08C284.937 258.583 284.369 258.335 283.617 258.335C282.874 258.335 282.314 258.579 281.936 259.066C281.557 259.554 281.368 260.281 281.368 261.247ZM290.139 257.508V262.368C290.139 262.979 290.278 263.435 290.556 263.735C290.834 264.036 291.269 264.187 291.861 264.187C292.645 264.187 293.217 263.972 293.577 263.544C293.942 263.116 294.124 262.416 294.124 261.445V257.508H295.259V265H294.322L294.158 263.995H294.097C293.864 264.364 293.541 264.647 293.126 264.843C292.716 265.039 292.246 265.137 291.718 265.137C290.806 265.137 290.123 264.92 289.667 264.487C289.216 264.054 288.99 263.362 288.99 262.409V257.508H290.139ZM302.799 265V260.153C302.799 259.543 302.66 259.087 302.382 258.786C302.104 258.485 301.669 258.335 301.076 258.335C300.292 258.335 299.718 258.547 299.354 258.971C298.989 259.395 298.807 260.094 298.807 261.069V265H297.672V257.508H298.595L298.779 258.533H298.834C299.066 258.164 299.392 257.879 299.812 257.679C300.231 257.474 300.698 257.371 301.213 257.371C302.115 257.371 302.794 257.59 303.25 258.027C303.706 258.46 303.934 259.155 303.934 260.112V265H302.799ZM308.691 264.2C308.892 264.2 309.086 264.187 309.272 264.159C309.459 264.127 309.607 264.095 309.717 264.063V264.932C309.594 264.991 309.411 265.039 309.17 265.075C308.933 265.116 308.719 265.137 308.527 265.137C307.078 265.137 306.354 264.373 306.354 262.847V258.39H305.28V257.843L306.354 257.371L306.832 255.771H307.488V257.508H309.662V258.39H307.488V262.799C307.488 263.25 307.595 263.596 307.81 263.838C308.024 264.079 308.318 264.2 308.691 264.2Z" fill="white"/>
<rect x="70" y="240" width="98" height="40" rx="6" fill="#4262FF"/>
<path d="M93.9395 265L92.6953 261.821H88.6895L87.459 265H86.2832L90.2344 254.965H91.2119L95.1426 265H93.9395ZM92.333 260.775L91.1709 257.679C91.0205 257.287 90.8656 256.806 90.7061 256.236C90.6058 256.674 90.4622 257.155 90.2754 257.679L89.0996 260.775H92.333ZM101.445 263.995H101.384C100.86 264.756 100.076 265.137 99.0322 265.137C98.0524 265.137 97.2891 264.802 96.7422 264.132C96.1999 263.462 95.9287 262.509 95.9287 261.274C95.9287 260.039 96.2021 259.08 96.749 258.396C97.2959 257.713 98.057 257.371 99.0322 257.371C100.049 257.371 100.828 257.74 101.37 258.479H101.459L101.411 257.938L101.384 257.412V254.363H102.519V265H101.596L101.445 263.995ZM99.1758 264.187C99.9505 264.187 100.511 263.977 100.857 263.558C101.208 263.134 101.384 262.452 101.384 261.514V261.274C101.384 260.213 101.206 259.456 100.851 259.005C100.5 258.549 99.9368 258.321 99.1621 258.321C98.4967 258.321 97.9863 258.581 97.6309 259.101C97.2799 259.616 97.1045 260.345 97.1045 261.288C97.1045 262.245 97.2799 262.967 97.6309 263.455C97.9818 263.943 98.4967 264.187 99.1758 264.187ZM110.031 263.995H109.97C109.446 264.756 108.662 265.137 107.618 265.137C106.638 265.137 105.875 264.802 105.328 264.132C104.786 263.462 104.515 262.509 104.515 261.274C104.515 260.039 104.788 259.08 105.335 258.396C105.882 257.713 106.643 257.371 107.618 257.371C108.634 257.371 109.414 257.74 109.956 258.479H110.045L109.997 257.938L109.97 257.412V254.363H111.104V265H110.182L110.031 263.995ZM107.762 264.187C108.536 264.187 109.097 263.977 109.443 263.558C109.794 263.134 109.97 262.452 109.97 261.514V261.274C109.97 260.213 109.792 259.456 109.437 259.005C109.086 258.549 108.523 258.321 107.748 258.321C107.083 258.321 106.572 258.581 106.217 259.101C105.866 259.616 105.69 260.345 105.69 261.288C105.69 262.245 105.866 262.967 106.217 263.455C106.568 263.943 107.083 264.187 107.762 264.187ZM120.319 265.137C119.212 265.137 118.337 264.799 117.694 264.125C117.056 263.451 116.737 262.514 116.737 261.315C116.737 260.108 117.034 259.148 117.626 258.438C118.223 257.727 119.023 257.371 120.025 257.371C120.964 257.371 121.707 257.681 122.254 258.301C122.801 258.916 123.074 259.729 123.074 260.741V261.459H117.913C117.936 262.339 118.157 263.006 118.576 263.462C119 263.918 119.595 264.146 120.36 264.146C121.167 264.146 121.965 263.977 122.753 263.64V264.651C122.352 264.825 121.971 264.948 121.611 265.021C121.256 265.098 120.825 265.137 120.319 265.137ZM120.012 258.321C119.41 258.321 118.929 258.517 118.569 258.909C118.214 259.301 118.004 259.843 117.94 260.536H121.857C121.857 259.821 121.698 259.274 121.379 258.896C121.06 258.513 120.604 258.321 120.012 258.321ZM134.565 265V260.126C134.565 259.529 134.438 259.082 134.183 258.786C133.927 258.485 133.531 258.335 132.993 258.335C132.287 258.335 131.765 258.538 131.428 258.943C131.09 259.349 130.922 259.973 130.922 260.816V265H129.787V260.126C129.787 259.529 129.66 259.082 129.404 258.786C129.149 258.485 128.75 258.335 128.208 258.335C127.497 258.335 126.975 258.549 126.643 258.978C126.314 259.401 126.15 260.099 126.15 261.069V265H125.016V257.508H125.938L126.123 258.533H126.178C126.392 258.169 126.693 257.884 127.08 257.679C127.472 257.474 127.91 257.371 128.393 257.371C129.564 257.371 130.329 257.795 130.689 258.643H130.744C130.967 258.251 131.291 257.941 131.715 257.713C132.139 257.485 132.622 257.371 133.164 257.371C134.012 257.371 134.645 257.59 135.064 258.027C135.488 258.46 135.7 259.155 135.7 260.112V265H134.565ZM142.652 265L142.427 263.934H142.372C141.998 264.403 141.625 264.722 141.251 264.891C140.882 265.055 140.419 265.137 139.863 265.137C139.12 265.137 138.537 264.945 138.113 264.562C137.694 264.18 137.484 263.635 137.484 262.929C137.484 261.416 138.694 260.623 141.114 260.55L142.386 260.509V260.044C142.386 259.456 142.258 259.023 142.003 258.745C141.752 258.463 141.349 258.321 140.793 258.321C140.169 258.321 139.462 258.513 138.674 258.896L138.325 258.027C138.694 257.827 139.098 257.67 139.535 257.556C139.977 257.442 140.419 257.385 140.861 257.385C141.755 257.385 142.415 257.583 142.844 257.979C143.277 258.376 143.493 259.012 143.493 259.887V265H142.652ZM140.089 264.2C140.795 264.2 141.349 264.007 141.75 263.619C142.156 263.232 142.358 262.689 142.358 261.992V261.315L141.224 261.363C140.321 261.395 139.67 261.536 139.269 261.787C138.872 262.033 138.674 262.418 138.674 262.942C138.674 263.353 138.797 263.665 139.043 263.879C139.294 264.093 139.642 264.2 140.089 264.2ZM146.973 265H145.838V257.508H146.973V265ZM145.742 255.478C145.742 255.218 145.806 255.029 145.934 254.91C146.061 254.787 146.221 254.726 146.412 254.726C146.594 254.726 146.752 254.787 146.884 254.91C147.016 255.033 147.082 255.222 147.082 255.478C147.082 255.733 147.016 255.924 146.884 256.052C146.752 256.175 146.594 256.236 146.412 256.236C146.221 256.236 146.061 256.175 145.934 256.052C145.806 255.924 145.742 255.733 145.742 255.478ZM150.514 265H149.379V254.363H150.514V265Z" fill="white"/>
<rect x="70.5" y="96.5" width="439" height="95" rx="3.5" fill="white" stroke="#C3C2CF"/>
<path d="M265.811 149L265.585 147.934H265.53C265.157 148.403 264.783 148.722 264.409 148.891C264.04 149.055 263.577 149.137 263.021 149.137C262.279 149.137 261.695 148.945 261.271 148.562C260.852 148.18 260.643 147.635 260.643 146.929C260.643 145.416 261.853 144.623 264.272 144.55L265.544 144.509V144.044C265.544 143.456 265.416 143.023 265.161 142.745C264.91 142.463 264.507 142.321 263.951 142.321C263.327 142.321 262.62 142.513 261.832 142.896L261.483 142.027C261.853 141.827 262.256 141.67 262.693 141.556C263.135 141.442 263.577 141.385 264.02 141.385C264.913 141.385 265.574 141.583 266.002 141.979C266.435 142.376 266.651 143.012 266.651 143.887V149H265.811ZM263.247 148.2C263.953 148.2 264.507 148.007 264.908 147.619C265.314 147.232 265.517 146.689 265.517 145.992V145.315L264.382 145.363C263.479 145.395 262.828 145.536 262.427 145.787C262.03 146.033 261.832 146.418 261.832 146.942C261.832 147.353 261.955 147.665 262.201 147.879C262.452 148.093 262.8 148.2 263.247 148.2ZM274.096 147.995H274.034C273.51 148.756 272.726 149.137 271.683 149.137C270.703 149.137 269.939 148.802 269.393 148.132C268.85 147.462 268.579 146.509 268.579 145.274C268.579 144.039 268.853 143.08 269.399 142.396C269.946 141.713 270.707 141.371 271.683 141.371C272.699 141.371 273.478 141.74 274.021 142.479H274.109L274.062 141.938L274.034 141.412V138.363H275.169V149H274.246L274.096 147.995ZM271.826 148.187C272.601 148.187 273.161 147.977 273.508 147.558C273.859 147.134 274.034 146.452 274.034 145.514V145.274C274.034 144.213 273.856 143.456 273.501 143.005C273.15 142.549 272.587 142.321 271.812 142.321C271.147 142.321 270.637 142.581 270.281 143.101C269.93 143.616 269.755 144.345 269.755 145.288C269.755 146.245 269.93 146.967 270.281 147.455C270.632 147.943 271.147 148.187 271.826 148.187ZM282.682 147.995H282.62C282.096 148.756 281.312 149.137 280.269 149.137C279.289 149.137 278.525 148.802 277.979 148.132C277.436 147.462 277.165 146.509 277.165 145.274C277.165 144.039 277.438 143.08 277.985 142.396C278.532 141.713 279.293 141.371 280.269 141.371C281.285 141.371 282.064 141.74 282.606 142.479H282.695L282.647 141.938L282.62 141.412V138.363H283.755V149H282.832L282.682 147.995ZM280.412 148.187C281.187 148.187 281.747 147.977 282.094 147.558C282.445 147.134 282.62 146.452 282.62 145.514V145.274C282.62 144.213 282.442 143.456 282.087 143.005C281.736 142.549 281.173 142.321 280.398 142.321C279.733 142.321 279.223 142.581 278.867 143.101C278.516 143.616 278.341 144.345 278.341 145.288C278.341 146.245 278.516 146.967 278.867 147.455C279.218 147.943 279.733 148.187 280.412 148.187ZM299.354 149V144.126C299.354 143.529 299.227 143.082 298.972 142.786C298.716 142.485 298.32 142.335 297.782 142.335C297.076 142.335 296.554 142.538 296.217 142.943C295.88 143.349 295.711 143.973 295.711 144.816V149H294.576V144.126C294.576 143.529 294.449 143.082 294.193 142.786C293.938 142.485 293.539 142.335 292.997 142.335C292.286 142.335 291.764 142.549 291.432 142.978C291.104 143.401 290.939 144.099 290.939 145.069V149H289.805V141.508H290.728L290.912 142.533H290.967C291.181 142.169 291.482 141.884 291.869 141.679C292.261 141.474 292.699 141.371 293.182 141.371C294.353 141.371 295.118 141.795 295.479 142.643H295.533C295.757 142.251 296.08 141.941 296.504 141.713C296.928 141.485 297.411 141.371 297.953 141.371C298.801 141.371 299.434 141.59 299.854 142.027C300.277 142.46 300.489 143.155 300.489 144.112V149H299.354ZM309.301 145.247C309.301 146.468 308.993 147.423 308.378 148.111C307.763 148.795 306.913 149.137 305.828 149.137C305.158 149.137 304.563 148.979 304.044 148.665C303.524 148.351 303.123 147.899 302.841 147.312C302.558 146.724 302.417 146.035 302.417 145.247C302.417 144.026 302.722 143.076 303.333 142.396C303.944 141.713 304.791 141.371 305.876 141.371C306.924 141.371 307.756 141.72 308.371 142.417C308.991 143.114 309.301 144.058 309.301 145.247ZM303.593 145.247C303.593 146.204 303.784 146.933 304.167 147.435C304.55 147.936 305.113 148.187 305.855 148.187C306.598 148.187 307.161 147.938 307.544 147.441C307.931 146.94 308.125 146.209 308.125 145.247C308.125 144.295 307.931 143.572 307.544 143.08C307.161 142.583 306.594 142.335 305.842 142.335C305.099 142.335 304.538 142.579 304.16 143.066C303.782 143.554 303.593 144.281 303.593 145.247ZM314.715 141.371C315.048 141.371 315.346 141.398 315.61 141.453L315.453 142.506C315.143 142.438 314.87 142.403 314.633 142.403C314.027 142.403 313.507 142.649 313.074 143.142C312.646 143.634 312.432 144.247 312.432 144.98V149H311.297V141.508H312.233L312.363 142.896H312.418C312.696 142.408 313.031 142.032 313.423 141.768C313.815 141.503 314.245 141.371 314.715 141.371ZM320.177 149.137C319.069 149.137 318.194 148.799 317.552 148.125C316.914 147.451 316.595 146.514 316.595 145.315C316.595 144.108 316.891 143.148 317.483 142.438C318.08 141.727 318.88 141.371 319.883 141.371C320.822 141.371 321.564 141.681 322.111 142.301C322.658 142.916 322.932 143.729 322.932 144.741V145.459H317.771C317.793 146.339 318.014 147.006 318.434 147.462C318.857 147.918 319.452 148.146 320.218 148.146C321.024 148.146 321.822 147.977 322.61 147.64V148.651C322.209 148.825 321.829 148.948 321.469 149.021C321.113 149.098 320.683 149.137 320.177 149.137ZM319.869 142.321C319.268 142.321 318.787 142.517 318.427 142.909C318.071 143.301 317.862 143.843 317.798 144.536H321.715C321.715 143.821 321.555 143.274 321.236 142.896C320.917 142.513 320.462 142.321 319.869 142.321ZM331.996 149.137C331.508 149.137 331.062 149.048 330.656 148.87C330.255 148.688 329.918 148.41 329.645 148.036H329.562C329.617 148.474 329.645 148.888 329.645 149.28V152.363H328.51V141.508H329.433L329.59 142.533H329.645C329.936 142.123 330.276 141.827 330.663 141.645C331.05 141.462 331.495 141.371 331.996 141.371C332.99 141.371 333.755 141.711 334.293 142.39C334.835 143.069 335.106 144.021 335.106 145.247C335.106 146.478 334.831 147.435 334.279 148.118C333.732 148.797 332.971 149.137 331.996 149.137ZM331.832 142.335C331.066 142.335 330.513 142.547 330.171 142.971C329.829 143.395 329.654 144.069 329.645 144.994V145.247C329.645 146.3 329.82 147.054 330.171 147.51C330.522 147.961 331.085 148.187 331.859 148.187C332.507 148.187 333.012 147.924 333.377 147.4C333.746 146.876 333.931 146.154 333.931 145.233C333.931 144.299 333.746 143.584 333.377 143.087C333.012 142.586 332.497 142.335 331.832 142.335ZM340.261 149.137C339.153 149.137 338.278 148.799 337.636 148.125C336.998 147.451 336.679 146.514 336.679 145.315C336.679 144.108 336.975 143.148 337.567 142.438C338.164 141.727 338.964 141.371 339.967 141.371C340.906 141.371 341.648 141.681 342.195 142.301C342.742 142.916 343.016 143.729 343.016 144.741V145.459H337.854C337.877 146.339 338.098 147.006 338.518 147.462C338.941 147.918 339.536 148.146 340.302 148.146C341.108 148.146 341.906 147.977 342.694 147.64V148.651C342.293 148.825 341.913 148.948 341.553 149.021C341.197 149.098 340.767 149.137 340.261 149.137ZM339.953 142.321C339.352 142.321 338.871 142.517 338.511 142.909C338.155 143.301 337.946 143.843 337.882 144.536H341.799C341.799 143.821 341.639 143.274 341.32 142.896C341.001 142.513 340.546 142.321 339.953 142.321ZM351.424 145.247C351.424 146.468 351.116 147.423 350.501 148.111C349.886 148.795 349.036 149.137 347.951 149.137C347.281 149.137 346.687 148.979 346.167 148.665C345.647 148.351 345.246 147.899 344.964 147.312C344.681 146.724 344.54 146.035 344.54 145.247C344.54 144.026 344.845 143.076 345.456 142.396C346.067 141.713 346.914 141.371 347.999 141.371C349.047 141.371 349.879 141.72 350.494 142.417C351.114 143.114 351.424 144.058 351.424 145.247ZM345.716 145.247C345.716 146.204 345.907 146.933 346.29 147.435C346.673 147.936 347.236 148.187 347.979 148.187C348.721 148.187 349.284 147.938 349.667 147.441C350.054 146.94 350.248 146.209 350.248 145.247C350.248 144.295 350.054 143.572 349.667 143.08C349.284 142.583 348.717 142.335 347.965 142.335C347.222 142.335 346.661 142.579 346.283 143.066C345.905 143.554 345.716 144.281 345.716 145.247ZM356.906 149.137C356.419 149.137 355.972 149.048 355.566 148.87C355.165 148.688 354.828 148.41 354.555 148.036H354.473C354.527 148.474 354.555 148.888 354.555 149.28V152.363H353.42V141.508H354.343L354.5 142.533H354.555C354.846 142.123 355.186 141.827 355.573 141.645C355.961 141.462 356.405 141.371 356.906 141.371C357.9 141.371 358.665 141.711 359.203 142.39C359.745 143.069 360.017 144.021 360.017 145.247C360.017 146.478 359.741 147.435 359.189 148.118C358.643 148.797 357.882 149.137 356.906 149.137ZM356.742 142.335C355.977 142.335 355.423 142.547 355.081 142.971C354.739 143.395 354.564 144.069 354.555 144.994V145.247C354.555 146.3 354.73 147.054 355.081 147.51C355.432 147.961 355.995 148.187 356.77 148.187C357.417 148.187 357.923 147.924 358.287 147.4C358.656 146.876 358.841 146.154 358.841 145.233C358.841 144.299 358.656 143.584 358.287 143.087C357.923 142.586 357.408 142.335 356.742 142.335ZM363.141 149H362.006V138.363H363.141V149ZM368.712 149.137C367.604 149.137 366.729 148.799 366.087 148.125C365.449 147.451 365.13 146.514 365.13 145.315C365.13 144.108 365.426 143.148 366.019 142.438C366.616 141.727 367.415 141.371 368.418 141.371C369.357 141.371 370.1 141.681 370.646 142.301C371.193 142.916 371.467 143.729 371.467 144.741V145.459H366.306C366.328 146.339 366.549 147.006 366.969 147.462C367.393 147.918 367.987 148.146 368.753 148.146C369.56 148.146 370.357 147.977 371.146 147.64V148.651C370.744 148.825 370.364 148.948 370.004 149.021C369.648 149.098 369.218 149.137 368.712 149.137ZM368.404 142.321C367.803 142.321 367.322 142.517 366.962 142.909C366.606 143.301 366.397 143.843 366.333 144.536H370.25C370.25 143.821 370.09 143.274 369.771 142.896C369.452 142.513 368.997 142.321 368.404 142.321ZM373.244 148.275C373.244 147.97 373.312 147.74 373.449 147.585C373.59 147.425 373.791 147.346 374.051 147.346C374.315 147.346 374.52 147.425 374.666 147.585C374.816 147.74 374.892 147.97 374.892 148.275C374.892 148.572 374.816 148.799 374.666 148.959C374.516 149.118 374.311 149.198 374.051 149.198C373.818 149.198 373.625 149.128 373.47 148.986C373.319 148.84 373.244 148.604 373.244 148.275ZM376.867 148.275C376.867 147.97 376.936 147.74 377.072 147.585C377.214 147.425 377.414 147.346 377.674 147.346C377.938 147.346 378.143 147.425 378.289 147.585C378.439 147.74 378.515 147.97 378.515 148.275C378.515 148.572 378.439 148.799 378.289 148.959C378.139 149.118 377.934 149.198 377.674 149.198C377.441 149.198 377.248 149.128 377.093 148.986C376.942 148.84 376.867 148.604 376.867 148.275ZM380.497 148.275C380.497 147.97 380.565 147.74 380.702 147.585C380.843 147.425 381.044 147.346 381.304 147.346C381.568 147.346 381.773 147.425 381.919 147.585C382.069 147.74 382.145 147.97 382.145 148.275C382.145 148.572 382.069 148.799 381.919 148.959C381.769 149.118 381.563 149.198 381.304 149.198C381.071 149.198 380.878 149.128 380.723 148.986C380.572 148.84 380.497 148.604 380.497 148.275Z" fill="#C3C2CF"/>
<rect x="77" y="132" width="175" height="24" rx="12" fill="#6699FF" fill-opacity="0.2"/>
<path d="M93.4824 149L93.2568 147.934H93.2021C92.8285 148.403 92.4548 148.722 92.0811 148.891C91.7119 149.055 91.2493 149.137 90.6934 149.137C89.9505 149.137 89.3672 148.945 88.9434 148.562C88.5241 148.18 88.3145 147.635 88.3145 146.929C88.3145 145.416 89.5244 144.623 91.9443 144.55L93.2158 144.509V144.044C93.2158 143.456 93.0882 143.023 92.833 142.745C92.5824 142.463 92.179 142.321 91.623 142.321C90.9987 142.321 90.2923 142.513 89.5039 142.896L89.1553 142.027C89.5244 141.827 89.9277 141.67 90.3652 141.556C90.8073 141.442 91.2493 141.385 91.6914 141.385C92.5846 141.385 93.2454 141.583 93.6738 141.979C94.1068 142.376 94.3232 143.012 94.3232 143.887V149H93.4824ZM90.9189 148.2C91.6253 148.2 92.179 148.007 92.5801 147.619C92.9857 147.232 93.1885 146.689 93.1885 145.992V145.315L92.0537 145.363C91.1514 145.395 90.4997 145.536 90.0986 145.787C89.7021 146.033 89.5039 146.418 89.5039 146.942C89.5039 147.353 89.627 147.665 89.873 147.879C90.1237 148.093 90.4723 148.2 90.9189 148.2ZM97.8027 149H96.668V138.363H97.8027V149ZM103.374 149.137C102.267 149.137 101.392 148.799 100.749 148.125C100.111 147.451 99.792 146.514 99.792 145.315C99.792 144.108 100.088 143.148 100.681 142.438C101.278 141.727 102.077 141.371 103.08 141.371C104.019 141.371 104.762 141.681 105.309 142.301C105.855 142.916 106.129 143.729 106.129 144.741V145.459H100.968C100.991 146.339 101.212 147.006 101.631 147.462C102.055 147.918 102.649 148.146 103.415 148.146C104.222 148.146 105.019 147.977 105.808 147.64V148.651C105.407 148.825 105.026 148.948 104.666 149.021C104.311 149.098 103.88 149.137 103.374 149.137ZM103.066 142.321C102.465 142.321 101.984 142.517 101.624 142.909C101.269 143.301 101.059 143.843 100.995 144.536H104.912C104.912 143.821 104.753 143.274 104.434 142.896C104.115 142.513 103.659 142.321 103.066 142.321ZM109.875 145.165L107.271 141.508H108.562L110.538 144.379L112.507 141.508H113.785L111.181 145.165L113.922 149H112.637L110.538 145.965L108.419 149H107.134L109.875 145.165ZM120.02 149L119.794 147.934H119.739C119.366 148.403 118.992 148.722 118.618 148.891C118.249 149.055 117.786 149.137 117.23 149.137C116.488 149.137 115.904 148.945 115.48 148.562C115.061 148.18 114.852 147.635 114.852 146.929C114.852 145.416 116.062 144.623 118.481 144.55L119.753 144.509V144.044C119.753 143.456 119.625 143.023 119.37 142.745C119.119 142.463 118.716 142.321 118.16 142.321C117.536 142.321 116.829 142.513 116.041 142.896L115.692 142.027C116.062 141.827 116.465 141.67 116.902 141.556C117.344 141.442 117.786 141.385 118.229 141.385C119.122 141.385 119.783 141.583 120.211 141.979C120.644 142.376 120.86 143.012 120.86 143.887V149H120.02ZM117.456 148.2C118.162 148.2 118.716 148.007 119.117 147.619C119.523 147.232 119.726 146.689 119.726 145.992V145.315L118.591 145.363C117.688 145.395 117.037 145.536 116.636 145.787C116.239 146.033 116.041 146.418 116.041 146.942C116.041 147.353 116.164 147.665 116.41 147.879C116.661 148.093 117.009 148.2 117.456 148.2ZM128.332 149V144.153C128.332 143.543 128.193 143.087 127.915 142.786C127.637 142.485 127.202 142.335 126.609 142.335C125.826 142.335 125.251 142.547 124.887 142.971C124.522 143.395 124.34 144.094 124.34 145.069V149H123.205V141.508H124.128L124.312 142.533H124.367C124.6 142.164 124.925 141.879 125.345 141.679C125.764 141.474 126.231 141.371 126.746 141.371C127.648 141.371 128.327 141.59 128.783 142.027C129.239 142.46 129.467 143.155 129.467 144.112V149H128.332ZM136.904 147.995H136.843C136.319 148.756 135.535 149.137 134.491 149.137C133.511 149.137 132.748 148.802 132.201 148.132C131.659 147.462 131.388 146.509 131.388 145.274C131.388 144.039 131.661 143.08 132.208 142.396C132.755 141.713 133.516 141.371 134.491 141.371C135.507 141.371 136.287 141.74 136.829 142.479H136.918L136.87 141.938L136.843 141.412V138.363H137.978V149H137.055L136.904 147.995ZM134.635 148.187C135.41 148.187 135.97 147.977 136.316 147.558C136.667 147.134 136.843 146.452 136.843 145.514V145.274C136.843 144.213 136.665 143.456 136.31 143.005C135.959 142.549 135.396 142.321 134.621 142.321C133.956 142.321 133.445 142.581 133.09 143.101C132.739 143.616 132.563 144.345 132.563 145.288C132.563 146.245 132.739 146.967 133.09 147.455C133.441 147.943 133.956 148.187 134.635 148.187ZM143.556 149.137C142.448 149.137 141.573 148.799 140.931 148.125C140.293 147.451 139.974 146.514 139.974 145.315C139.974 144.108 140.27 143.148 140.862 142.438C141.459 141.727 142.259 141.371 143.262 141.371C144.201 141.371 144.943 141.681 145.49 142.301C146.037 142.916 146.311 143.729 146.311 144.741V145.459H141.149C141.172 146.339 141.393 147.006 141.812 147.462C142.236 147.918 142.831 148.146 143.597 148.146C144.403 148.146 145.201 147.977 145.989 147.64V148.651C145.588 148.825 145.208 148.948 144.848 149.021C144.492 149.098 144.062 149.137 143.556 149.137ZM143.248 142.321C142.646 142.321 142.166 142.517 141.806 142.909C141.45 143.301 141.241 143.843 141.177 144.536H145.094C145.094 143.821 144.934 143.274 144.615 142.896C144.296 142.513 143.84 142.321 143.248 142.321ZM151.67 141.371C152.003 141.371 152.301 141.398 152.565 141.453L152.408 142.506C152.098 142.438 151.825 142.403 151.588 142.403C150.982 142.403 150.462 142.649 150.029 143.142C149.601 143.634 149.387 144.247 149.387 144.98V149H148.252V141.508H149.188L149.318 142.896H149.373C149.651 142.408 149.986 142.032 150.378 141.768C150.77 141.503 151.201 141.371 151.67 141.371ZM164.521 144.017C164.521 144.664 164.421 145.256 164.221 145.794C164.02 146.332 163.738 146.749 163.373 147.045C163.008 147.341 162.589 147.489 162.115 147.489C161.723 147.489 161.393 147.371 161.124 147.134C160.855 146.897 160.696 146.594 160.646 146.225H160.591C160.409 146.621 160.146 146.931 159.805 147.154C159.467 147.378 159.066 147.489 158.602 147.489C157.918 147.489 157.382 147.257 156.995 146.792C156.612 146.323 156.421 145.687 156.421 144.885C156.421 143.955 156.69 143.201 157.228 142.622C157.765 142.039 158.472 141.747 159.347 141.747C159.657 141.747 160.007 141.777 160.399 141.836C160.791 141.891 161.145 141.968 161.459 142.068L161.288 145.281V145.432C161.288 146.243 161.591 146.648 162.197 146.648C162.612 146.648 162.949 146.405 163.209 145.917C163.469 145.425 163.599 144.787 163.599 144.003C163.599 143.178 163.43 142.456 163.093 141.836C162.756 141.216 162.275 140.74 161.65 140.407C161.031 140.07 160.317 139.901 159.511 139.901C158.494 139.901 157.61 140.113 156.858 140.537C156.106 140.956 155.532 141.558 155.136 142.342C154.739 143.121 154.541 144.023 154.541 145.049C154.541 146.439 154.908 147.507 155.642 148.255C156.375 149.002 157.433 149.376 158.813 149.376C159.771 149.376 160.764 149.18 161.794 148.788V149.697C160.919 150.08 159.925 150.271 158.813 150.271C157.159 150.271 155.874 149.818 154.958 148.911C154.047 148 153.591 146.728 153.591 145.097C153.591 143.912 153.835 142.857 154.322 141.932C154.81 141.007 155.505 140.291 156.407 139.785C157.31 139.275 158.344 139.02 159.511 139.02C160.491 139.02 161.361 139.227 162.122 139.642C162.888 140.052 163.478 140.637 163.893 141.398C164.312 142.155 164.521 143.028 164.521 144.017ZM157.453 144.912C157.453 146.07 157.897 146.648 158.786 146.648C159.729 146.648 160.242 145.935 160.324 144.509L160.42 142.725C160.092 142.633 159.734 142.588 159.347 142.588C158.754 142.588 158.289 142.793 157.952 143.203C157.619 143.613 157.453 144.183 157.453 144.912ZM176.108 149V144.126C176.108 143.529 175.981 143.082 175.726 142.786C175.47 142.485 175.074 142.335 174.536 142.335C173.83 142.335 173.308 142.538 172.971 142.943C172.633 143.349 172.465 143.973 172.465 144.816V149H171.33V144.126C171.33 143.529 171.202 143.082 170.947 142.786C170.692 142.485 170.293 142.335 169.751 142.335C169.04 142.335 168.518 142.549 168.186 142.978C167.857 143.401 167.693 144.099 167.693 145.069V149H166.559V141.508H167.481L167.666 142.533H167.721C167.935 142.169 168.236 141.884 168.623 141.679C169.015 141.474 169.452 141.371 169.936 141.371C171.107 141.371 171.872 141.795 172.232 142.643H172.287C172.51 142.251 172.834 141.941 173.258 141.713C173.682 141.485 174.165 141.371 174.707 141.371C175.555 141.371 176.188 141.59 176.607 142.027C177.031 142.46 177.243 143.155 177.243 144.112V149H176.108ZM180.723 149H179.588V141.508H180.723V149ZM179.492 139.478C179.492 139.218 179.556 139.029 179.684 138.91C179.811 138.787 179.971 138.726 180.162 138.726C180.344 138.726 180.502 138.787 180.634 138.91C180.766 139.033 180.832 139.222 180.832 139.478C180.832 139.733 180.766 139.924 180.634 140.052C180.502 140.175 180.344 140.236 180.162 140.236C179.971 140.236 179.811 140.175 179.684 140.052C179.556 139.924 179.492 139.733 179.492 139.478ZM186.547 141.371C186.88 141.371 187.178 141.398 187.442 141.453L187.285 142.506C186.975 142.438 186.702 142.403 186.465 142.403C185.859 142.403 185.339 142.649 184.906 143.142C184.478 143.634 184.264 144.247 184.264 144.98V149H183.129V141.508H184.065L184.195 142.896H184.25C184.528 142.408 184.863 142.032 185.255 141.768C185.647 141.503 186.077 141.371 186.547 141.371ZM195.311 145.247C195.311 146.468 195.003 147.423 194.388 148.111C193.772 148.795 192.923 149.137 191.838 149.137C191.168 149.137 190.573 148.979 190.054 148.665C189.534 148.351 189.133 147.899 188.851 147.312C188.568 146.724 188.427 146.035 188.427 145.247C188.427 144.026 188.732 143.076 189.343 142.396C189.953 141.713 190.801 141.371 191.886 141.371C192.934 141.371 193.766 141.72 194.381 142.417C195.001 143.114 195.311 144.058 195.311 145.247ZM189.603 145.247C189.603 146.204 189.794 146.933 190.177 147.435C190.56 147.936 191.122 148.187 191.865 148.187C192.608 148.187 193.171 147.938 193.554 147.441C193.941 146.94 194.135 146.209 194.135 145.247C194.135 144.295 193.941 143.572 193.554 143.08C193.171 142.583 192.604 142.335 191.852 142.335C191.109 142.335 190.548 142.579 190.17 143.066C189.792 143.554 189.603 144.281 189.603 145.247ZM197.143 148.275C197.143 147.97 197.211 147.74 197.348 147.585C197.489 147.425 197.689 147.346 197.949 147.346C198.214 147.346 198.419 147.425 198.564 147.585C198.715 147.74 198.79 147.97 198.79 148.275C198.79 148.572 198.715 148.799 198.564 148.959C198.414 149.118 198.209 149.198 197.949 149.198C197.717 149.198 197.523 149.128 197.368 148.986C197.218 148.84 197.143 148.604 197.143 148.275ZM204.033 149.137C202.949 149.137 202.108 148.804 201.511 148.139C200.918 147.469 200.622 146.523 200.622 145.302C200.622 144.049 200.923 143.08 201.524 142.396C202.131 141.713 202.992 141.371 204.108 141.371C204.468 141.371 204.828 141.41 205.188 141.487C205.549 141.565 205.831 141.656 206.036 141.761L205.688 142.725C205.437 142.624 205.163 142.542 204.867 142.479C204.571 142.41 204.309 142.376 204.081 142.376C202.559 142.376 201.798 143.347 201.798 145.288C201.798 146.209 201.982 146.915 202.352 147.407C202.725 147.899 203.277 148.146 204.006 148.146C204.63 148.146 205.271 148.011 205.927 147.742V148.747C205.425 149.007 204.794 149.137 204.033 149.137ZM214.178 145.247C214.178 146.468 213.87 147.423 213.255 148.111C212.64 148.795 211.79 149.137 210.705 149.137C210.035 149.137 209.44 148.979 208.921 148.665C208.401 148.351 208 147.899 207.718 147.312C207.435 146.724 207.294 146.035 207.294 145.247C207.294 144.026 207.599 143.076 208.21 142.396C208.821 141.713 209.668 141.371 210.753 141.371C211.801 141.371 212.633 141.72 213.248 142.417C213.868 143.114 214.178 144.058 214.178 145.247ZM208.47 145.247C208.47 146.204 208.661 146.933 209.044 147.435C209.427 147.936 209.99 148.187 210.732 148.187C211.475 148.187 212.038 147.938 212.421 147.441C212.808 146.94 213.002 146.209 213.002 145.247C213.002 144.295 212.808 143.572 212.421 143.08C212.038 142.583 211.471 142.335 210.719 142.335C209.976 142.335 209.415 142.579 209.037 143.066C208.659 143.554 208.47 144.281 208.47 145.247ZM225.724 149V144.126C225.724 143.529 225.596 143.082 225.341 142.786C225.086 142.485 224.689 142.335 224.151 142.335C223.445 142.335 222.923 142.538 222.586 142.943C222.249 143.349 222.08 143.973 222.08 144.816V149H220.945V144.126C220.945 143.529 220.818 143.082 220.562 142.786C220.307 142.485 219.909 142.335 219.366 142.335C218.655 142.335 218.133 142.549 217.801 142.978C217.473 143.401 217.309 144.099 217.309 145.069V149H216.174V141.508H217.097L217.281 142.533H217.336C217.55 142.169 217.851 141.884 218.238 141.679C218.63 141.474 219.068 141.371 219.551 141.371C220.722 141.371 221.488 141.795 221.848 142.643H221.902C222.126 142.251 222.449 141.941 222.873 141.713C223.297 141.485 223.78 141.371 224.322 141.371C225.17 141.371 225.803 141.59 226.223 142.027C226.646 142.46 226.858 143.155 226.858 144.112V149H225.724Z" fill="#050038"/>
<path fill-rule="evenodd" clip-rule="evenodd" d="M244 140.8L243.2 140L240 143.2L236.8 140L236 140.8L239.2 144L236 147.2L236.8 148L240 144.8L243.2 148L244 147.2L240.8 144L244 140.8Z" fill="#050038"/>
<rect x="331" y="104" width="142" height="24" rx="12" fill="#6699FF" fill-opacity="0.2"/>
<path d="M352.729 121V116.126C352.729 115.529 352.602 115.082 352.347 114.786C352.091 114.485 351.695 114.335 351.157 114.335C350.451 114.335 349.929 114.538 349.592 114.943C349.255 115.349 349.086 115.973 349.086 116.816V121H347.951V116.126C347.951 115.529 347.824 115.082 347.568 114.786C347.313 114.485 346.914 114.335 346.372 114.335C345.661 114.335 345.139 114.549 344.807 114.978C344.479 115.401 344.314 116.099 344.314 117.069V121H343.18V113.508H344.103L344.287 114.533H344.342C344.556 114.169 344.857 113.884 345.244 113.679C345.636 113.474 346.074 113.371 346.557 113.371C347.728 113.371 348.493 113.795 348.854 114.643H348.908C349.132 114.251 349.455 113.941 349.879 113.713C350.303 113.485 350.786 113.371 351.328 113.371C352.176 113.371 352.809 113.59 353.229 114.027C353.652 114.46 353.864 115.155 353.864 116.112V121H352.729ZM357.344 121H356.209V113.508H357.344V121ZM356.113 111.478C356.113 111.218 356.177 111.029 356.305 110.91C356.432 110.787 356.592 110.726 356.783 110.726C356.965 110.726 357.123 110.787 357.255 110.91C357.387 111.033 357.453 111.222 357.453 111.478C357.453 111.733 357.387 111.924 357.255 112.052C357.123 112.175 356.965 112.236 356.783 112.236C356.592 112.236 356.432 112.175 356.305 112.052C356.177 111.924 356.113 111.733 356.113 111.478ZM360.871 117.165C361.067 116.887 361.366 116.522 361.767 116.071L364.187 113.508H365.533L362.498 116.7L365.745 121H364.371L361.726 117.459L360.871 118.197V121H359.75V110.363H360.871V116.003C360.871 116.254 360.853 116.641 360.816 117.165H360.871ZM370.271 121.137C369.163 121.137 368.288 120.799 367.646 120.125C367.007 119.451 366.688 118.514 366.688 117.315C366.688 116.108 366.985 115.148 367.577 114.438C368.174 113.727 368.974 113.371 369.977 113.371C370.915 113.371 371.658 113.681 372.205 114.301C372.752 114.916 373.025 115.729 373.025 116.741V117.459H367.864C367.887 118.339 368.108 119.006 368.527 119.462C368.951 119.918 369.546 120.146 370.312 120.146C371.118 120.146 371.916 119.977 372.704 119.64V120.651C372.303 120.825 371.923 120.948 371.562 121.021C371.207 121.098 370.776 121.137 370.271 121.137ZM369.963 114.321C369.361 114.321 368.881 114.517 368.521 114.909C368.165 115.301 367.955 115.843 367.892 116.536H371.809C371.809 115.821 371.649 115.274 371.33 114.896C371.011 114.513 370.555 114.321 369.963 114.321ZM385.521 116.017C385.521 116.664 385.421 117.256 385.221 117.794C385.02 118.332 384.738 118.749 384.373 119.045C384.008 119.341 383.589 119.489 383.115 119.489C382.723 119.489 382.393 119.371 382.124 119.134C381.855 118.897 381.696 118.594 381.646 118.225H381.591C381.409 118.621 381.146 118.931 380.805 119.154C380.467 119.378 380.066 119.489 379.602 119.489C378.918 119.489 378.382 119.257 377.995 118.792C377.612 118.323 377.421 117.687 377.421 116.885C377.421 115.955 377.69 115.201 378.228 114.622C378.765 114.039 379.472 113.747 380.347 113.747C380.657 113.747 381.007 113.777 381.399 113.836C381.791 113.891 382.145 113.968 382.459 114.068L382.288 117.281V117.432C382.288 118.243 382.591 118.648 383.197 118.648C383.612 118.648 383.949 118.405 384.209 117.917C384.469 117.425 384.599 116.787 384.599 116.003C384.599 115.178 384.43 114.456 384.093 113.836C383.756 113.216 383.275 112.74 382.65 112.407C382.031 112.07 381.317 111.901 380.511 111.901C379.494 111.901 378.61 112.113 377.858 112.537C377.106 112.956 376.532 113.558 376.136 114.342C375.739 115.121 375.541 116.023 375.541 117.049C375.541 118.439 375.908 119.507 376.642 120.255C377.375 121.002 378.433 121.376 379.813 121.376C380.771 121.376 381.764 121.18 382.794 120.788V121.697C381.919 122.08 380.925 122.271 379.813 122.271C378.159 122.271 376.874 121.818 375.958 120.911C375.047 120 374.591 118.728 374.591 117.097C374.591 115.912 374.835 114.857 375.322 113.932C375.81 113.007 376.505 112.291 377.407 111.785C378.31 111.275 379.344 111.02 380.511 111.02C381.491 111.02 382.361 111.227 383.122 111.642C383.888 112.052 384.478 112.637 384.893 113.398C385.312 114.155 385.521 115.028 385.521 116.017ZM378.453 116.912C378.453 118.07 378.897 118.648 379.786 118.648C380.729 118.648 381.242 117.935 381.324 116.509L381.42 114.725C381.092 114.633 380.734 114.588 380.347 114.588C379.754 114.588 379.289 114.793 378.952 115.203C378.619 115.613 378.453 116.183 378.453 116.912ZM397.108 121V116.126C397.108 115.529 396.981 115.082 396.726 114.786C396.47 114.485 396.074 114.335 395.536 114.335C394.83 114.335 394.308 114.538 393.971 114.943C393.633 115.349 393.465 115.973 393.465 116.816V121H392.33V116.126C392.33 115.529 392.202 115.082 391.947 114.786C391.692 114.485 391.293 114.335 390.751 114.335C390.04 114.335 389.518 114.549 389.186 114.978C388.857 115.401 388.693 116.099 388.693 117.069V121H387.559V113.508H388.481L388.666 114.533H388.721C388.935 114.169 389.236 113.884 389.623 113.679C390.015 113.474 390.452 113.371 390.936 113.371C392.107 113.371 392.872 113.795 393.232 114.643H393.287C393.51 114.251 393.834 113.941 394.258 113.713C394.682 113.485 395.165 113.371 395.707 113.371C396.555 113.371 397.188 113.59 397.607 114.027C398.031 114.46 398.243 115.155 398.243 116.112V121H397.108ZM401.723 121H400.588V113.508H401.723V121ZM400.492 111.478C400.492 111.218 400.556 111.029 400.684 110.91C400.811 110.787 400.971 110.726 401.162 110.726C401.344 110.726 401.502 110.787 401.634 110.91C401.766 111.033 401.832 111.222 401.832 111.478C401.832 111.733 401.766 111.924 401.634 112.052C401.502 112.175 401.344 112.236 401.162 112.236C400.971 112.236 400.811 112.175 400.684 112.052C400.556 111.924 400.492 111.733 400.492 111.478ZM407.547 113.371C407.88 113.371 408.178 113.398 408.442 113.453L408.285 114.506C407.975 114.438 407.702 114.403 407.465 114.403C406.859 114.403 406.339 114.649 405.906 115.142C405.478 115.634 405.264 116.247 405.264 116.98V121H404.129V113.508H405.065L405.195 114.896H405.25C405.528 114.408 405.863 114.032 406.255 113.768C406.647 113.503 407.077 113.371 407.547 113.371ZM416.311 117.247C416.311 118.468 416.003 119.423 415.388 120.111C414.772 120.795 413.923 121.137 412.838 121.137C412.168 121.137 411.573 120.979 411.054 120.665C410.534 120.351 410.133 119.899 409.851 119.312C409.568 118.724 409.427 118.035 409.427 117.247C409.427 116.026 409.732 115.076 410.343 114.396C410.953 113.713 411.801 113.371 412.886 113.371C413.934 113.371 414.766 113.72 415.381 114.417C416.001 115.114 416.311 116.058 416.311 117.247ZM410.603 117.247C410.603 118.204 410.794 118.933 411.177 119.435C411.56 119.936 412.122 120.187 412.865 120.187C413.608 120.187 414.171 119.938 414.554 119.441C414.941 118.94 415.135 118.209 415.135 117.247C415.135 116.295 414.941 115.572 414.554 115.08C414.171 114.583 413.604 114.335 412.852 114.335C412.109 114.335 411.548 114.579 411.17 115.066C410.792 115.554 410.603 116.281 410.603 117.247ZM418.143 120.275C418.143 119.97 418.211 119.74 418.348 119.585C418.489 119.425 418.689 119.346 418.949 119.346C419.214 119.346 419.419 119.425 419.564 119.585C419.715 119.74 419.79 119.97 419.79 120.275C419.79 120.572 419.715 120.799 419.564 120.959C419.414 121.118 419.209 121.198 418.949 121.198C418.717 121.198 418.523 121.128 418.368 120.986C418.218 120.84 418.143 120.604 418.143 120.275ZM425.033 121.137C423.949 121.137 423.108 120.804 422.511 120.139C421.918 119.469 421.622 118.523 421.622 117.302C421.622 116.049 421.923 115.08 422.524 114.396C423.131 113.713 423.992 113.371 425.108 113.371C425.468 113.371 425.828 113.41 426.188 113.487C426.549 113.565 426.831 113.656 427.036 113.761L426.688 114.725C426.437 114.624 426.163 114.542 425.867 114.479C425.571 114.41 425.309 114.376 425.081 114.376C423.559 114.376 422.798 115.347 422.798 117.288C422.798 118.209 422.982 118.915 423.352 119.407C423.725 119.899 424.277 120.146 425.006 120.146C425.63 120.146 426.271 120.011 426.927 119.742V120.747C426.425 121.007 425.794 121.137 425.033 121.137ZM435.178 117.247C435.178 118.468 434.87 119.423 434.255 120.111C433.64 120.795 432.79 121.137 431.705 121.137C431.035 121.137 430.44 120.979 429.921 120.665C429.401 120.351 429 119.899 428.718 119.312C428.435 118.724 428.294 118.035 428.294 117.247C428.294 116.026 428.599 115.076 429.21 114.396C429.821 113.713 430.668 113.371 431.753 113.371C432.801 113.371 433.633 113.72 434.248 114.417C434.868 115.114 435.178 116.058 435.178 117.247ZM429.47 117.247C429.47 118.204 429.661 118.933 430.044 119.435C430.427 119.936 430.99 120.187 431.732 120.187C432.475 120.187 433.038 119.938 433.421 119.441C433.808 118.94 434.002 118.209 434.002 117.247C434.002 116.295 433.808 115.572 433.421 115.08C433.038 114.583 432.471 114.335 431.719 114.335C430.976 114.335 430.415 114.579 430.037 115.066C429.659 115.554 429.47 116.281 429.47 117.247ZM446.724 121V116.126C446.724 115.529 446.596 115.082 446.341 114.786C446.086 114.485 445.689 114.335 445.151 114.335C444.445 114.335 443.923 114.538 443.586 114.943C443.249 115.349 443.08 115.973 443.08 116.816V121H441.945V116.126C441.945 115.529 441.818 115.082 441.562 114.786C441.307 114.485 440.909 114.335 440.366 114.335C439.655 114.335 439.133 114.549 438.801 114.978C438.473 115.401 438.309 116.099 438.309 117.069V121H437.174V113.508H438.097L438.281 114.533H438.336C438.55 114.169 438.851 113.884 439.238 113.679C439.63 113.474 440.068 113.371 440.551 113.371C441.722 113.371 442.488 113.795 442.848 114.643H442.902C443.126 114.251 443.449 113.941 443.873 113.713C444.297 113.485 444.78 113.371 445.322 113.371C446.17 113.371 446.803 113.59 447.223 114.027C447.646 114.46 447.858 115.155 447.858 116.112V121H446.724Z" fill="#050038"/>
<path fill-rule="evenodd" clip-rule="evenodd" d="M465 112.8L464.2 112L461 115.2L457.8 112L457 112.8L460.2 116L457 119.2L457.8 120L461 116.8L464.2 120L465 119.2L461.8 116L465 112.8Z" fill="#050038"/>
<path d="M227.225 121H226.09V113.508H227.225V121ZM225.994 111.478C225.994 111.218 226.058 111.029 226.186 110.91C226.313 110.787 226.473 110.726 226.664 110.726C226.846 110.726 227.004 110.787 227.136 110.91C227.268 111.033 227.334 111.222 227.334 111.478C227.334 111.733 227.268 111.924 227.136 112.052C227.004 112.175 226.846 112.236 226.664 112.236C226.473 112.236 226.313 112.175 226.186 112.052C226.058 111.924 225.994 111.733 225.994 111.478ZM234.758 121V116.153C234.758 115.543 234.619 115.087 234.341 114.786C234.063 114.485 233.628 114.335 233.035 114.335C232.251 114.335 231.677 114.547 231.312 114.971C230.948 115.395 230.766 116.094 230.766 117.069V121H229.631V113.508H230.554L230.738 114.533H230.793C231.025 114.164 231.351 113.879 231.771 113.679C232.19 113.474 232.657 113.371 233.172 113.371C234.074 113.371 234.753 113.59 235.209 114.027C235.665 114.46 235.893 115.155 235.893 116.112V121H234.758ZM239.871 121L237.027 113.508H238.244L239.857 117.951C240.222 118.99 240.436 119.665 240.5 119.975H240.555C240.605 119.733 240.762 119.234 241.026 118.478C241.295 117.716 241.895 116.06 242.824 113.508H244.041L241.197 121H239.871ZM249.852 121L249.626 119.934H249.571C249.198 120.403 248.824 120.722 248.45 120.891C248.081 121.055 247.618 121.137 247.062 121.137C246.32 121.137 245.736 120.945 245.312 120.562C244.893 120.18 244.684 119.635 244.684 118.929C244.684 117.416 245.894 116.623 248.313 116.55L249.585 116.509V116.044C249.585 115.456 249.457 115.023 249.202 114.745C248.951 114.463 248.548 114.321 247.992 114.321C247.368 114.321 246.661 114.513 245.873 114.896L245.524 114.027C245.894 113.827 246.297 113.67 246.734 113.556C247.176 113.442 247.618 113.385 248.061 113.385C248.954 113.385 249.615 113.583 250.043 113.979C250.476 114.376 250.692 115.012 250.692 115.887V121H249.852ZM247.288 120.2C247.994 120.2 248.548 120.007 248.949 119.619C249.355 119.232 249.558 118.689 249.558 117.992V117.315L248.423 117.363C247.521 117.395 246.869 117.536 246.468 117.787C246.071 118.033 245.873 118.418 245.873 118.942C245.873 119.353 245.996 119.665 246.242 119.879C246.493 120.093 246.841 120.2 247.288 120.2ZM254.172 121H253.037V110.363H254.172V121ZM257.713 121H256.578V113.508H257.713V121ZM256.482 111.478C256.482 111.218 256.546 111.029 256.674 110.91C256.801 110.787 256.961 110.726 257.152 110.726C257.335 110.726 257.492 110.787 257.624 110.91C257.756 111.033 257.822 111.222 257.822 111.478C257.822 111.733 257.756 111.924 257.624 112.052C257.492 112.175 257.335 112.236 257.152 112.236C256.961 112.236 256.801 112.175 256.674 112.052C256.546 111.924 256.482 111.733 256.482 111.478ZM265.219 119.995H265.157C264.633 120.756 263.849 121.137 262.806 121.137C261.826 121.137 261.062 120.802 260.516 120.132C259.973 119.462 259.702 118.509 259.702 117.274C259.702 116.039 259.976 115.08 260.522 114.396C261.069 113.713 261.83 113.371 262.806 113.371C263.822 113.371 264.601 113.74 265.144 114.479H265.232L265.185 113.938L265.157 113.412V110.363H266.292V121H265.369L265.219 119.995ZM262.949 120.187C263.724 120.187 264.285 119.977 264.631 119.558C264.982 119.134 265.157 118.452 265.157 117.514V117.274C265.157 116.213 264.979 115.456 264.624 115.005C264.273 114.549 263.71 114.321 262.936 114.321C262.27 114.321 261.76 114.581 261.404 115.101C261.053 115.616 260.878 116.345 260.878 117.288C260.878 118.245 261.053 118.967 261.404 119.455C261.755 119.943 262.27 120.187 262.949 120.187ZM268.541 120.275C268.541 119.97 268.609 119.74 268.746 119.585C268.887 119.425 269.088 119.346 269.348 119.346C269.612 119.346 269.817 119.425 269.963 119.585C270.113 119.74 270.188 119.97 270.188 120.275C270.188 120.572 270.113 120.799 269.963 120.959C269.812 121.118 269.607 121.198 269.348 121.198C269.115 121.198 268.922 121.128 268.767 120.986C268.616 120.84 268.541 120.604 268.541 120.275ZM275.603 121.137C274.495 121.137 273.62 120.799 272.978 120.125C272.34 119.451 272.021 118.514 272.021 117.315C272.021 116.108 272.317 115.148 272.909 114.438C273.506 113.727 274.306 113.371 275.309 113.371C276.247 113.371 276.99 113.681 277.537 114.301C278.084 114.916 278.357 115.729 278.357 116.741V117.459H273.196C273.219 118.339 273.44 119.006 273.859 119.462C274.283 119.918 274.878 120.146 275.644 120.146C276.45 120.146 277.248 119.977 278.036 119.64V120.651C277.635 120.825 277.255 120.948 276.895 121.021C276.539 121.098 276.108 121.137 275.603 121.137ZM275.295 114.321C274.693 114.321 274.213 114.517 273.853 114.909C273.497 115.301 273.287 115.843 273.224 116.536H277.141C277.141 115.821 276.981 115.274 276.662 114.896C276.343 114.513 275.887 114.321 275.295 114.321ZM289.849 121V116.126C289.849 115.529 289.721 115.082 289.466 114.786C289.211 114.485 288.814 114.335 288.276 114.335C287.57 114.335 287.048 114.538 286.711 114.943C286.374 115.349 286.205 115.973 286.205 116.816V121H285.07V116.126C285.07 115.529 284.943 115.082 284.688 114.786C284.432 114.485 284.034 114.335 283.491 114.335C282.78 114.335 282.258 114.549 281.926 114.978C281.598 115.401 281.434 116.099 281.434 117.069V121H280.299V113.508H281.222L281.406 114.533H281.461C281.675 114.169 281.976 113.884 282.363 113.679C282.755 113.474 283.193 113.371 283.676 113.371C284.847 113.371 285.613 113.795 285.973 114.643H286.027C286.251 114.251 286.574 113.941 286.998 113.713C287.422 113.485 287.905 113.371 288.447 113.371C289.295 113.371 289.928 113.59 290.348 114.027C290.771 114.46 290.983 115.155 290.983 116.112V121H289.849ZM297.936 121L297.71 119.934H297.655C297.282 120.403 296.908 120.722 296.534 120.891C296.165 121.055 295.702 121.137 295.146 121.137C294.404 121.137 293.82 120.945 293.396 120.562C292.977 120.18 292.768 119.635 292.768 118.929C292.768 117.416 293.978 116.623 296.397 116.55L297.669 116.509V116.044C297.669 115.456 297.541 115.023 297.286 114.745C297.035 114.463 296.632 114.321 296.076 114.321C295.452 114.321 294.745 114.513 293.957 114.896L293.608 114.027C293.978 113.827 294.381 113.67 294.818 113.556C295.26 113.442 295.702 113.385 296.145 113.385C297.038 113.385 297.699 113.583 298.127 113.979C298.56 114.376 298.776 115.012 298.776 115.887V121H297.936ZM295.372 120.2C296.078 120.2 296.632 120.007 297.033 119.619C297.439 119.232 297.642 118.689 297.642 117.992V117.315L296.507 117.363C295.604 117.395 294.953 117.536 294.552 117.787C294.155 118.033 293.957 118.418 293.957 118.942C293.957 119.353 294.08 119.665 294.326 119.879C294.577 120.093 294.925 120.2 295.372 120.2ZM302.256 121H301.121V113.508H302.256V121ZM301.025 111.478C301.025 111.218 301.089 111.029 301.217 110.91C301.344 110.787 301.504 110.726 301.695 110.726C301.878 110.726 302.035 110.787 302.167 110.91C302.299 111.033 302.365 111.222 302.365 111.478C302.365 111.733 302.299 111.924 302.167 112.052C302.035 112.175 301.878 112.236 301.695 112.236C301.504 112.236 301.344 112.175 301.217 112.052C301.089 111.924 301.025 111.733 301.025 111.478ZM305.797 121H304.662V110.363H305.797V121Z" fill="#050038"/>
<path fill-rule="evenodd" clip-rule="evenodd" d="M323 112.8L322.2 112L319 115.2L315.8 112L315 112.8L318.2 116L315 119.2L315.8 120L319 116.8L322.2 120L323 119.2L319.8 116L323 112.8Z" fill="#050038"/>
<line x1="224" y1="127.5" x2="323" y2="127.5" stroke="#D92929" stroke-miterlimit="16" stroke-dasharray="3 2"/>
<rect x="77" y="104" width="139" height="24" rx="12" fill="#6699FF" fill-opacity="0.2"/>
<path d="M87.8545 124.363C87.4215 124.363 87.0706 124.306 86.8018 124.192V123.27C87.1162 123.361 87.4261 123.406 87.7314 123.406C88.0869 123.406 88.3467 123.308 88.5107 123.112C88.6794 122.921 88.7637 122.627 88.7637 122.23V113.508H89.8984V122.148C89.8984 123.625 89.2171 124.363 87.8545 124.363ZM88.668 111.478C88.668 111.218 88.7318 111.029 88.8594 110.91C88.987 110.787 89.1465 110.726 89.3379 110.726C89.5202 110.726 89.6774 110.787 89.8096 110.91C89.9417 111.033 90.0078 111.222 90.0078 111.478C90.0078 111.733 89.9417 111.924 89.8096 112.052C89.6774 112.175 89.5202 112.236 89.3379 112.236C89.1465 112.236 88.987 112.175 88.8594 112.052C88.7318 111.924 88.668 111.733 88.668 111.478ZM98.7715 117.247C98.7715 118.468 98.4639 119.423 97.8486 120.111C97.2334 120.795 96.3835 121.137 95.2988 121.137C94.6289 121.137 94.0342 120.979 93.5146 120.665C92.9951 120.351 92.5941 119.899 92.3115 119.312C92.029 118.724 91.8877 118.035 91.8877 117.247C91.8877 116.026 92.193 115.076 92.8037 114.396C93.4144 113.713 94.262 113.371 95.3467 113.371C96.3949 113.371 97.2266 113.72 97.8418 114.417C98.4616 115.114 98.7715 116.058 98.7715 117.247ZM93.0635 117.247C93.0635 118.204 93.2549 118.933 93.6377 119.435C94.0205 119.936 94.5833 120.187 95.3262 120.187C96.069 120.187 96.6318 119.938 97.0146 119.441C97.402 118.94 97.5957 118.209 97.5957 117.247C97.5957 116.295 97.402 115.572 97.0146 115.08C96.6318 114.583 96.0645 114.335 95.3125 114.335C94.5697 114.335 94.0091 114.579 93.6309 115.066C93.2526 115.554 93.0635 116.281 93.0635 117.247ZM105.895 121V116.153C105.895 115.543 105.756 115.087 105.478 114.786C105.2 114.485 104.764 114.335 104.172 114.335C103.383 114.335 102.807 114.549 102.442 114.978C102.082 115.406 101.902 116.108 101.902 117.083V121H100.768V110.363H101.902V113.583C101.902 113.97 101.884 114.292 101.848 114.547H101.916C102.139 114.187 102.456 113.904 102.866 113.699C103.281 113.49 103.753 113.385 104.281 113.385C105.197 113.385 105.883 113.604 106.339 114.041C106.799 114.474 107.029 115.164 107.029 116.112V121H105.895ZM114.494 121V116.153C114.494 115.543 114.355 115.087 114.077 114.786C113.799 114.485 113.364 114.335 112.771 114.335C111.988 114.335 111.413 114.547 111.049 114.971C110.684 115.395 110.502 116.094 110.502 117.069V121H109.367V113.508H110.29L110.475 114.533H110.529C110.762 114.164 111.088 113.879 111.507 113.679C111.926 113.474 112.393 113.371 112.908 113.371C113.811 113.371 114.49 113.59 114.945 114.027C115.401 114.46 115.629 115.155 115.629 116.112V121H114.494ZM128.521 116.017C128.521 116.664 128.421 117.256 128.221 117.794C128.02 118.332 127.738 118.749 127.373 119.045C127.008 119.341 126.589 119.489 126.115 119.489C125.723 119.489 125.393 119.371 125.124 119.134C124.855 118.897 124.696 118.594 124.646 118.225H124.591C124.409 118.621 124.146 118.931 123.805 119.154C123.467 119.378 123.066 119.489 122.602 119.489C121.918 119.489 121.382 119.257 120.995 118.792C120.612 118.323 120.421 117.687 120.421 116.885C120.421 115.955 120.69 115.201 121.228 114.622C121.765 114.039 122.472 113.747 123.347 113.747C123.657 113.747 124.007 113.777 124.399 113.836C124.791 113.891 125.145 113.968 125.459 114.068L125.288 117.281V117.432C125.288 118.243 125.591 118.648 126.197 118.648C126.612 118.648 126.949 118.405 127.209 117.917C127.469 117.425 127.599 116.787 127.599 116.003C127.599 115.178 127.43 114.456 127.093 113.836C126.756 113.216 126.275 112.74 125.65 112.407C125.031 112.07 124.317 111.901 123.511 111.901C122.494 111.901 121.61 112.113 120.858 112.537C120.106 112.956 119.532 113.558 119.136 114.342C118.739 115.121 118.541 116.023 118.541 117.049C118.541 118.439 118.908 119.507 119.642 120.255C120.375 121.002 121.433 121.376 122.813 121.376C123.771 121.376 124.764 121.18 125.794 120.788V121.697C124.919 122.08 123.925 122.271 122.813 122.271C121.159 122.271 119.874 121.818 118.958 120.911C118.047 120 117.591 118.728 117.591 117.097C117.591 115.912 117.835 114.857 118.322 113.932C118.81 113.007 119.505 112.291 120.407 111.785C121.31 111.275 122.344 111.02 123.511 111.02C124.491 111.02 125.361 111.227 126.122 111.642C126.888 112.052 127.478 112.637 127.893 113.398C128.312 114.155 128.521 115.028 128.521 116.017ZM121.453 116.912C121.453 118.07 121.897 118.648 122.786 118.648C123.729 118.648 124.242 117.935 124.324 116.509L124.42 114.725C124.092 114.633 123.734 114.588 123.347 114.588C122.754 114.588 122.289 114.793 121.952 115.203C121.619 115.613 121.453 116.183 121.453 116.912ZM140.108 121V116.126C140.108 115.529 139.981 115.082 139.726 114.786C139.47 114.485 139.074 114.335 138.536 114.335C137.83 114.335 137.308 114.538 136.971 114.943C136.633 115.349 136.465 115.973 136.465 116.816V121H135.33V116.126C135.33 115.529 135.202 115.082 134.947 114.786C134.692 114.485 134.293 114.335 133.751 114.335C133.04 114.335 132.518 114.549 132.186 114.978C131.857 115.401 131.693 116.099 131.693 117.069V121H130.559V113.508H131.481L131.666 114.533H131.721C131.935 114.169 132.236 113.884 132.623 113.679C133.015 113.474 133.452 113.371 133.936 113.371C135.107 113.371 135.872 113.795 136.232 114.643H136.287C136.51 114.251 136.834 113.941 137.258 113.713C137.682 113.485 138.165 113.371 138.707 113.371C139.555 113.371 140.188 113.59 140.607 114.027C141.031 114.46 141.243 115.155 141.243 116.112V121H140.108ZM144.723 121H143.588V113.508H144.723V121ZM143.492 111.478C143.492 111.218 143.556 111.029 143.684 110.91C143.811 110.787 143.971 110.726 144.162 110.726C144.344 110.726 144.502 110.787 144.634 110.91C144.766 111.033 144.832 111.222 144.832 111.478C144.832 111.733 144.766 111.924 144.634 112.052C144.502 112.175 144.344 112.236 144.162 112.236C143.971 112.236 143.811 112.175 143.684 112.052C143.556 111.924 143.492 111.733 143.492 111.478ZM150.547 113.371C150.88 113.371 151.178 113.398 151.442 113.453L151.285 114.506C150.975 114.438 150.702 114.403 150.465 114.403C149.859 114.403 149.339 114.649 148.906 115.142C148.478 115.634 148.264 116.247 148.264 116.98V121H147.129V113.508H148.065L148.195 114.896H148.25C148.528 114.408 148.863 114.032 149.255 113.768C149.647 113.503 150.077 113.371 150.547 113.371ZM159.311 117.247C159.311 118.468 159.003 119.423 158.388 120.111C157.772 120.795 156.923 121.137 155.838 121.137C155.168 121.137 154.573 120.979 154.054 120.665C153.534 120.351 153.133 119.899 152.851 119.312C152.568 118.724 152.427 118.035 152.427 117.247C152.427 116.026 152.732 115.076 153.343 114.396C153.953 113.713 154.801 113.371 155.886 113.371C156.934 113.371 157.766 113.72 158.381 114.417C159.001 115.114 159.311 116.058 159.311 117.247ZM153.603 117.247C153.603 118.204 153.794 118.933 154.177 119.435C154.56 119.936 155.122 120.187 155.865 120.187C156.608 120.187 157.171 119.938 157.554 119.441C157.941 118.94 158.135 118.209 158.135 117.247C158.135 116.295 157.941 115.572 157.554 115.08C157.171 114.583 156.604 114.335 155.852 114.335C155.109 114.335 154.548 114.579 154.17 115.066C153.792 115.554 153.603 116.281 153.603 117.247ZM161.143 120.275C161.143 119.97 161.211 119.74 161.348 119.585C161.489 119.425 161.689 119.346 161.949 119.346C162.214 119.346 162.419 119.425 162.564 119.585C162.715 119.74 162.79 119.97 162.79 120.275C162.79 120.572 162.715 120.799 162.564 120.959C162.414 121.118 162.209 121.198 161.949 121.198C161.717 121.198 161.523 121.128 161.368 120.986C161.218 120.84 161.143 120.604 161.143 120.275ZM168.033 121.137C166.949 121.137 166.108 120.804 165.511 120.139C164.918 119.469 164.622 118.523 164.622 117.302C164.622 116.049 164.923 115.08 165.524 114.396C166.131 113.713 166.992 113.371 168.108 113.371C168.468 113.371 168.828 113.41 169.188 113.487C169.549 113.565 169.831 113.656 170.036 113.761L169.688 114.725C169.437 114.624 169.163 114.542 168.867 114.479C168.571 114.41 168.309 114.376 168.081 114.376C166.559 114.376 165.798 115.347 165.798 117.288C165.798 118.209 165.982 118.915 166.352 119.407C166.725 119.899 167.277 120.146 168.006 120.146C168.63 120.146 169.271 120.011 169.927 119.742V120.747C169.425 121.007 168.794 121.137 168.033 121.137ZM178.178 117.247C178.178 118.468 177.87 119.423 177.255 120.111C176.64 120.795 175.79 121.137 174.705 121.137C174.035 121.137 173.44 120.979 172.921 120.665C172.401 120.351 172 119.899 171.718 119.312C171.435 118.724 171.294 118.035 171.294 117.247C171.294 116.026 171.599 115.076 172.21 114.396C172.821 113.713 173.668 113.371 174.753 113.371C175.801 113.371 176.633 113.72 177.248 114.417C177.868 115.114 178.178 116.058 178.178 117.247ZM172.47 117.247C172.47 118.204 172.661 118.933 173.044 119.435C173.427 119.936 173.99 120.187 174.732 120.187C175.475 120.187 176.038 119.938 176.421 119.441C176.808 118.94 177.002 118.209 177.002 117.247C177.002 116.295 176.808 115.572 176.421 115.08C176.038 114.583 175.471 114.335 174.719 114.335C173.976 114.335 173.415 114.579 173.037 115.066C172.659 115.554 172.47 116.281 172.47 117.247ZM189.724 121V116.126C189.724 115.529 189.596 115.082 189.341 114.786C189.086 114.485 188.689 114.335 188.151 114.335C187.445 114.335 186.923 114.538 186.586 114.943C186.249 115.349 186.08 115.973 186.08 116.816V121H184.945V116.126C184.945 115.529 184.818 115.082 184.562 114.786C184.307 114.485 183.909 114.335 183.366 114.335C182.655 114.335 182.133 114.549 181.801 114.978C181.473 115.401 181.309 116.099 181.309 117.069V121H180.174V113.508H181.097L181.281 114.533H181.336C181.55 114.169 181.851 113.884 182.238 113.679C182.63 113.474 183.068 113.371 183.551 113.371C184.722 113.371 185.488 113.795 185.848 114.643H185.902C186.126 114.251 186.449 113.941 186.873 113.713C187.297 113.485 187.78 113.371 188.322 113.371C189.17 113.371 189.803 113.59 190.223 114.027C190.646 114.46 190.858 115.155 190.858 116.112V121H189.724Z" fill="#050038"/>
<path fill-rule="evenodd" clip-rule="evenodd" d="M208 112.8L207.2 112L204 115.2L200.8 112L200 112.8L203.2 116L200 119.2L200.8 120L204 116.8L207.2 120L208 119.2L204.8 116L208 112.8Z" fill="#050038"/>
<path d="M80.0195 61.2012C80.0195 62.4577 79.5638 63.4375 78.6523 64.1406C77.7409 64.8438 76.5039 65.1953 74.9414 65.1953C73.2487 65.1953 71.9466 64.9772 71.0352 64.541V62.9395C71.6211 63.1868 72.2591 63.3822 72.9492 63.5254C73.6393 63.6686 74.3229 63.7402 75 63.7402C76.1068 63.7402 76.9401 63.5319 77.5 63.1152C78.0599 62.6921 78.3398 62.1061 78.3398 61.3574C78.3398 60.8626 78.2389 60.459 78.0371 60.1465C77.8418 59.8275 77.5098 59.5345 77.041 59.2676C76.5788 59.0007 75.8724 58.6979 74.9219 58.3594C73.5938 57.8841 72.6432 57.321 72.0703 56.6699C71.5039 56.0189 71.2207 55.1693 71.2207 54.1211C71.2207 53.0208 71.6341 52.1452 72.4609 51.4941C73.2878 50.8431 74.3815 50.5176 75.7422 50.5176C77.1615 50.5176 78.4668 50.778 79.6582 51.2988L79.1406 52.7441C77.9622 52.2493 76.8164 52.002 75.7031 52.002C74.8242 52.002 74.1374 52.1908 73.6426 52.5684C73.1478 52.946 72.9004 53.4701 72.9004 54.1406C72.9004 54.6354 72.9915 55.0423 73.1738 55.3613C73.3561 55.6738 73.6621 55.9635 74.0918 56.2305C74.528 56.4909 75.1921 56.7806 76.084 57.0996C77.5814 57.6335 78.61 58.2064 79.1699 58.8184C79.7363 59.4303 80.0195 60.2246 80.0195 61.2012ZM90.0195 65V58.0762C90.0195 57.2038 89.821 56.5527 89.4238 56.123C89.0267 55.6934 88.4049 55.4785 87.5586 55.4785C86.4323 55.4785 85.6087 55.7845 85.0879 56.3965C84.5736 57.0085 84.3164 58.0111 84.3164 59.4043V65H82.6953V49.8047H84.3164V54.4043C84.3164 54.9577 84.2904 55.4167 84.2383 55.7812H84.3359C84.6549 55.2669 85.1074 54.8633 85.6934 54.5703C86.2858 54.2708 86.9596 54.1211 87.7148 54.1211C89.0234 54.1211 90.0033 54.4336 90.6543 55.0586C91.3118 55.6771 91.6406 56.6634 91.6406 58.0176V65H90.0195ZM101.562 65L101.24 63.4766H101.162C100.628 64.1471 100.094 64.6029 99.5605 64.8438C99.0332 65.0781 98.3724 65.1953 97.5781 65.1953C96.5169 65.1953 95.6836 64.9219 95.0781 64.375C94.4792 63.8281 94.1797 63.0501 94.1797 62.041C94.1797 59.8796 95.9082 58.7467 99.3652 58.6426L101.182 58.584V57.9199C101.182 57.0801 100.999 56.4616 100.635 56.0645C100.277 55.6608 99.7005 55.459 98.9062 55.459C98.0143 55.459 97.0052 55.7324 95.8789 56.2793L95.3809 55.0391C95.9082 54.7526 96.4844 54.528 97.1094 54.3652C97.7409 54.2025 98.3724 54.1211 99.0039 54.1211C100.28 54.1211 101.224 54.4043 101.836 54.9707C102.454 55.5371 102.764 56.4453 102.764 57.6953V65H101.562ZM97.9004 63.8574C98.9095 63.8574 99.7005 63.5807 100.273 63.0273C100.853 62.474 101.143 61.6992 101.143 60.7031V59.7363L99.5215 59.8047C98.2324 59.8503 97.3014 60.0521 96.7285 60.4102C96.1621 60.7617 95.8789 61.3118 95.8789 62.0605C95.8789 62.6465 96.0547 63.0924 96.4062 63.3984C96.7643 63.7044 97.2624 63.8574 97.9004 63.8574ZM110.996 54.1016C111.471 54.1016 111.898 54.1406 112.275 54.2188L112.051 55.7227C111.608 55.625 111.217 55.5762 110.879 55.5762C110.013 55.5762 109.271 55.9277 108.652 56.6309C108.04 57.334 107.734 58.2096 107.734 59.2578V65H106.113V54.2969H107.451L107.637 56.2793H107.715C108.112 55.5827 108.59 55.0456 109.15 54.668C109.71 54.2904 110.326 54.1016 110.996 54.1016ZM118.799 65.1953C117.217 65.1953 115.967 64.7135 115.049 63.75C114.137 62.7865 113.682 61.4486 113.682 59.7363C113.682 58.0111 114.105 56.6406 114.951 55.625C115.804 54.6094 116.947 54.1016 118.379 54.1016C119.72 54.1016 120.781 54.5443 121.562 55.4297C122.344 56.3086 122.734 57.4707 122.734 58.916V59.9414H115.361C115.394 61.1979 115.71 62.1517 116.309 62.8027C116.914 63.4538 117.764 63.7793 118.857 63.7793C120.01 63.7793 121.149 63.5384 122.275 63.0566V64.502C121.702 64.7493 121.159 64.9251 120.645 65.0293C120.137 65.14 119.521 65.1953 118.799 65.1953ZM118.359 55.459C117.5 55.459 116.813 55.7389 116.299 56.2988C115.791 56.8587 115.492 57.6335 115.4 58.623H120.996C120.996 57.6009 120.768 56.8197 120.312 56.2793C119.857 55.7324 119.206 55.459 118.359 55.459ZM130.781 50.7227H135.225C137.249 50.7227 138.717 51.0124 139.629 51.5918C140.547 52.1647 141.006 53.0794 141.006 54.3359C141.006 55.1888 140.804 55.8887 140.4 56.4355C140.003 56.9824 139.473 57.3112 138.809 57.4219V57.5195C139.714 57.7214 140.365 58.099 140.762 58.6523C141.165 59.2057 141.367 59.9414 141.367 60.8594C141.367 62.1615 140.895 63.1771 139.951 63.9062C139.014 64.6354 137.738 65 136.123 65H130.781V50.7227ZM133.809 56.377H135.566C136.387 56.377 136.979 56.25 137.344 55.9961C137.715 55.7422 137.9 55.3223 137.9 54.7363C137.9 54.1895 137.699 53.7988 137.295 53.5645C136.898 53.3236 136.266 53.2031 135.4 53.2031H133.809V56.377ZM133.809 58.7793V62.5H135.781C136.615 62.5 137.23 62.3405 137.627 62.0215C138.024 61.7025 138.223 61.2142 138.223 60.5566C138.223 59.3717 137.376 58.7793 135.684 58.7793H133.809ZM146.357 59.5215C146.357 60.6022 146.533 61.4193 146.885 61.9727C147.243 62.526 147.822 62.8027 148.623 62.8027C149.417 62.8027 149.987 62.5293 150.332 61.9824C150.684 61.429 150.859 60.6087 150.859 59.5215C150.859 58.4408 150.684 57.6302 150.332 57.0898C149.98 56.5495 149.404 56.2793 148.604 56.2793C147.809 56.2793 147.236 56.5495 146.885 57.0898C146.533 57.6237 146.357 58.4342 146.357 59.5215ZM153.906 59.5215C153.906 61.2988 153.438 62.6888 152.5 63.6914C151.562 64.694 150.257 65.1953 148.584 65.1953C147.536 65.1953 146.611 64.9674 145.811 64.5117C145.01 64.0495 144.395 63.3887 143.965 62.5293C143.535 61.6699 143.32 60.6673 143.32 59.5215C143.32 57.7376 143.786 56.3509 144.717 55.3613C145.648 54.3717 146.956 53.877 148.643 53.877C149.691 53.877 150.615 54.1048 151.416 54.5605C152.217 55.0163 152.832 55.6706 153.262 56.5234C153.691 57.3763 153.906 58.3757 153.906 59.5215ZM163.301 65L162.725 63.5156H162.646C162.145 64.1471 161.628 64.5866 161.094 64.834C160.566 65.0749 159.876 65.1953 159.023 65.1953C157.975 65.1953 157.148 64.8958 156.543 64.2969C155.944 63.6979 155.645 62.8451 155.645 61.7383C155.645 60.5794 156.048 59.7266 156.855 59.1797C157.669 58.6263 158.893 58.3203 160.527 58.2617L162.422 58.2031V57.7246C162.422 56.6178 161.855 56.0645 160.723 56.0645C159.85 56.0645 158.825 56.3281 157.646 56.8555L156.66 54.8438C157.917 54.1862 159.31 53.8574 160.84 53.8574C162.305 53.8574 163.428 54.1764 164.209 54.8145C164.99 55.4525 165.381 56.4225 165.381 57.7246V65H163.301ZM162.422 59.9414L161.27 59.9805C160.404 60.0065 159.759 60.1628 159.336 60.4492C158.913 60.7357 158.701 61.1719 158.701 61.7578C158.701 62.5977 159.183 63.0176 160.146 63.0176C160.837 63.0176 161.387 62.819 161.797 62.4219C162.214 62.0247 162.422 61.4974 162.422 60.8398V59.9414ZM174.551 53.877C174.954 53.877 175.29 53.9062 175.557 53.9648L175.332 56.7578C175.091 56.6927 174.798 56.6602 174.453 56.6602C173.503 56.6602 172.76 56.9043 172.227 57.3926C171.699 57.8809 171.436 58.5645 171.436 59.4434V65H168.457V54.082H170.713L171.152 55.918H171.299C171.637 55.306 172.093 54.8145 172.666 54.4434C173.245 54.0658 173.874 53.877 174.551 53.877ZM180.996 65.1953C179.714 65.1953 178.704 64.6973 177.969 63.7012C177.24 62.7051 176.875 61.3249 176.875 59.5605C176.875 57.7702 177.246 56.377 177.988 55.3809C178.737 54.3783 179.766 53.877 181.074 53.877C182.448 53.877 183.496 54.4108 184.219 55.4785H184.316C184.167 54.6647 184.092 53.9388 184.092 53.3008V49.8047H187.08V65H184.795L184.219 63.584H184.092C183.415 64.6582 182.383 65.1953 180.996 65.1953ZM182.041 62.8223C182.803 62.8223 183.359 62.6009 183.711 62.1582C184.069 61.7155 184.264 60.9635 184.297 59.9023V59.5801C184.297 58.4082 184.115 57.5684 183.75 57.0605C183.392 56.5527 182.806 56.2988 181.992 56.2988C181.328 56.2988 180.811 56.582 180.439 57.1484C180.075 57.7083 179.893 58.5254 179.893 59.5996C179.893 60.6738 180.078 61.4811 180.449 62.0215C180.82 62.5553 181.351 62.8223 182.041 62.8223ZM205.469 65H202.49V58.623C202.49 57.8353 202.35 57.2461 202.07 56.8555C201.79 56.4583 201.344 56.2598 200.732 56.2598C199.899 56.2598 199.297 56.5397 198.926 57.0996C198.555 57.653 198.369 58.5742 198.369 59.8633V65H195.391V54.082H197.666L198.066 55.4785H198.232C198.564 54.9512 199.02 54.554 199.6 54.2871C200.186 54.0137 200.85 53.877 201.592 53.877C202.861 53.877 203.825 54.222 204.482 54.9121C205.14 55.5957 205.469 56.5853 205.469 57.8809V65ZM215.469 65L214.893 63.5156H214.814C214.313 64.1471 213.796 64.5866 213.262 64.834C212.734 65.0749 212.044 65.1953 211.191 65.1953C210.143 65.1953 209.316 64.8958 208.711 64.2969C208.112 63.6979 207.812 62.8451 207.812 61.7383C207.812 60.5794 208.216 59.7266 209.023 59.1797C209.837 58.6263 211.061 58.3203 212.695 58.2617L214.59 58.2031V57.7246C214.59 56.6178 214.023 56.0645 212.891 56.0645C212.018 56.0645 210.993 56.3281 209.814 56.8555L208.828 54.8438C210.085 54.1862 211.478 53.8574 213.008 53.8574C214.473 53.8574 215.596 54.1764 216.377 54.8145C217.158 55.4525 217.549 56.4225 217.549 57.7246V65H215.469ZM214.59 59.9414L213.438 59.9805C212.572 60.0065 211.927 60.1628 211.504 60.4492C211.081 60.7357 210.869 61.1719 210.869 61.7578C210.869 62.5977 211.351 63.0176 212.314 63.0176C213.005 63.0176 213.555 62.819 213.965 62.4219C214.382 62.0247 214.59 61.4974 214.59 60.8398V59.9414ZM230.4 65H227.422V58.623C227.422 57.8353 227.288 57.2461 227.021 56.8555C226.761 56.4583 226.348 56.2598 225.781 56.2598C225.02 56.2598 224.466 56.5397 224.121 57.0996C223.776 57.6595 223.604 58.5807 223.604 59.8633V65H220.625V54.082H222.9L223.301 55.4785H223.467C223.76 54.9772 224.183 54.5866 224.736 54.3066C225.29 54.0202 225.924 53.877 226.641 53.877C228.275 53.877 229.382 54.4108 229.961 55.4785H230.225C230.518 54.9707 230.947 54.5768 231.514 54.2969C232.087 54.0169 232.731 53.877 233.447 53.877C234.684 53.877 235.618 54.196 236.25 54.834C236.888 55.4655 237.207 56.4811 237.207 57.8809V65H234.219V58.623C234.219 57.8353 234.085 57.2461 233.818 56.8555C233.558 56.4583 233.145 56.2598 232.578 56.2598C231.849 56.2598 231.302 56.5202 230.938 57.041C230.579 57.5618 230.4 58.3887 230.4 59.5215V65ZM244.795 55.9961C244.163 55.9961 243.669 56.1979 243.311 56.6016C242.952 56.9987 242.747 57.5651 242.695 58.3008H246.875C246.862 57.5651 246.67 56.9987 246.299 56.6016C245.928 56.1979 245.426 55.9961 244.795 55.9961ZM245.215 65.1953C243.457 65.1953 242.083 64.7103 241.094 63.7402C240.104 62.7702 239.609 61.3965 239.609 59.6191C239.609 57.7897 240.065 56.377 240.977 55.3809C241.895 54.3783 243.161 53.877 244.775 53.877C246.318 53.877 247.52 54.3164 248.379 55.1953C249.238 56.0742 249.668 57.2884 249.668 58.8379V60.2832H242.627C242.66 61.1296 242.91 61.7904 243.379 62.2656C243.848 62.7409 244.505 62.9785 245.352 62.9785C246.009 62.9785 246.631 62.9102 247.217 62.7734C247.803 62.6367 248.415 62.4186 249.053 62.1191V64.4238C248.532 64.6842 247.975 64.8763 247.383 65C246.79 65.1302 246.068 65.1953 245.215 65.1953ZM266.182 65L264.219 58.7207C264.095 58.3366 263.864 57.4642 263.525 56.1035H263.447C263.187 57.2428 262.959 58.1217 262.764 58.7402L260.742 65H258.867L255.947 54.2969H257.646C258.337 56.9857 258.861 59.0332 259.219 60.4395C259.583 61.8457 259.792 62.793 259.844 63.2812H259.922C259.993 62.9102 260.107 62.4316 260.264 61.8457C260.426 61.2533 260.566 60.7845 260.684 60.4395L262.646 54.2969H264.404L266.318 60.4395C266.683 61.5592 266.93 62.5 267.061 63.2617H267.139C267.165 63.0273 267.233 62.666 267.344 62.1777C267.461 61.6895 268.141 59.0625 269.385 54.2969H271.064L268.105 65H266.182ZM274.629 65H273.008V54.2969H274.629V65ZM272.871 51.3965C272.871 51.0254 272.962 50.7552 273.145 50.5859C273.327 50.4102 273.555 50.3223 273.828 50.3223C274.089 50.3223 274.313 50.4102 274.502 50.5859C274.691 50.7617 274.785 51.0319 274.785 51.3965C274.785 51.7611 274.691 52.0345 274.502 52.2168C274.313 52.3926 274.089 52.4805 273.828 52.4805C273.555 52.4805 273.327 52.3926 273.145 52.2168C272.962 52.0345 272.871 51.7611 272.871 51.3965ZM281.523 63.8574C281.81 63.8574 282.087 63.8379 282.354 63.7988C282.62 63.7533 282.832 63.7077 282.988 63.6621V64.9023C282.812 64.987 282.552 65.0553 282.207 65.1074C281.868 65.166 281.562 65.1953 281.289 65.1953C279.219 65.1953 278.184 64.1048 278.184 61.9238V55.5566H276.65V54.7754L278.184 54.1016L278.867 51.8164H279.805V54.2969H282.91V55.5566H279.805V61.8555C279.805 62.5 279.958 62.9948 280.264 63.3398C280.57 63.6849 280.99 63.8574 281.523 63.8574ZM292.461 65V58.0762C292.461 57.2038 292.262 56.5527 291.865 56.123C291.468 55.6934 290.846 55.4785 290 55.4785C288.874 55.4785 288.05 55.7845 287.529 56.3965C287.015 57.0085 286.758 58.0111 286.758 59.4043V65H285.137V49.8047H286.758V54.4043C286.758 54.9577 286.732 55.4167 286.68 55.7812H286.777C287.096 55.2669 287.549 54.8633 288.135 54.5703C288.727 54.2708 289.401 54.1211 290.156 54.1211C291.465 54.1211 292.445 54.4336 293.096 55.0586C293.753 55.6771 294.082 56.6634 294.082 58.0176V65H292.461ZM311.855 59.6387C311.855 61.3835 311.416 62.7474 310.537 63.7305C309.658 64.707 308.444 65.1953 306.895 65.1953C305.938 65.1953 305.088 64.9707 304.346 64.5215C303.604 64.0723 303.031 63.4277 302.627 62.5879C302.223 61.748 302.021 60.765 302.021 59.6387C302.021 57.8939 302.458 56.5365 303.33 55.5664C304.202 54.5898 305.413 54.1016 306.963 54.1016C308.46 54.1016 309.648 54.5996 310.527 55.5957C311.413 56.5918 311.855 57.9395 311.855 59.6387ZM303.701 59.6387C303.701 61.0059 303.975 62.0475 304.521 62.7637C305.068 63.4798 305.872 63.8379 306.934 63.8379C307.995 63.8379 308.799 63.4831 309.346 62.7734C309.899 62.0573 310.176 61.0124 310.176 59.6387C310.176 58.278 309.899 57.2461 309.346 56.543C308.799 55.8333 307.988 55.4785 306.914 55.4785C305.853 55.4785 305.052 55.8268 304.512 56.5234C303.971 57.2201 303.701 58.2585 303.701 59.6387ZM318.164 63.8574C318.451 63.8574 318.727 63.8379 318.994 63.7988C319.261 63.7533 319.473 63.7077 319.629 63.6621V64.9023C319.453 64.987 319.193 65.0553 318.848 65.1074C318.509 65.166 318.203 65.1953 317.93 65.1953C315.859 65.1953 314.824 64.1048 314.824 61.9238V55.5566H313.291V54.7754L314.824 54.1016L315.508 51.8164H316.445V54.2969H319.551V55.5566H316.445V61.8555C316.445 62.5 316.598 62.9948 316.904 63.3398C317.21 63.6849 317.63 63.8574 318.164 63.8574ZM329.102 65V58.0762C329.102 57.2038 328.903 56.5527 328.506 56.123C328.109 55.6934 327.487 55.4785 326.641 55.4785C325.514 55.4785 324.691 55.7845 324.17 56.3965C323.656 57.0085 323.398 58.0111 323.398 59.4043V65H321.777V49.8047H323.398V54.4043C323.398 54.9577 323.372 55.4167 323.32 55.7812H323.418C323.737 55.2669 324.189 54.8633 324.775 54.5703C325.368 54.2708 326.042 54.1211 326.797 54.1211C328.105 54.1211 329.085 54.4336 329.736 55.0586C330.394 55.6771 330.723 56.6634 330.723 58.0176V65H329.102ZM338.584 65.1953C337.002 65.1953 335.752 64.7135 334.834 63.75C333.923 62.7865 333.467 61.4486 333.467 59.7363C333.467 58.0111 333.89 56.6406 334.736 55.625C335.589 54.6094 336.732 54.1016 338.164 54.1016C339.505 54.1016 340.566 54.5443 341.348 55.4297C342.129 56.3086 342.52 57.4707 342.52 58.916V59.9414H335.146C335.179 61.1979 335.495 62.1517 336.094 62.8027C336.699 63.4538 337.549 63.7793 338.643 63.7793C339.795 63.7793 340.934 63.5384 342.061 63.0566V64.502C341.488 64.7493 340.944 64.9251 340.43 65.0293C339.922 65.14 339.307 65.1953 338.584 65.1953ZM338.145 55.459C337.285 55.459 336.598 55.7389 336.084 56.2988C335.576 56.8587 335.277 57.6335 335.186 58.623H340.781C340.781 57.6009 340.553 56.8197 340.098 56.2793C339.642 55.7324 338.991 55.459 338.145 55.459ZM350.176 54.1016C350.651 54.1016 351.077 54.1406 351.455 54.2188L351.23 55.7227C350.788 55.625 350.397 55.5762 350.059 55.5762C349.193 55.5762 348.451 55.9277 347.832 56.6309C347.22 57.334 346.914 58.2096 346.914 59.2578V65H345.293V54.2969H346.631L346.816 56.2793H346.895C347.292 55.5827 347.77 55.0456 348.33 54.668C348.89 54.2904 349.505 54.1016 350.176 54.1016ZM360.361 62.0801C360.361 63.0762 359.99 63.8444 359.248 64.3848C358.506 64.9251 357.464 65.1953 356.123 65.1953C354.704 65.1953 353.597 64.9707 352.803 64.5215V63.0176C353.317 63.278 353.867 63.4831 354.453 63.6328C355.046 63.7826 355.615 63.8574 356.162 63.8574C357.008 63.8574 357.66 63.724 358.115 63.457C358.571 63.1836 358.799 62.7702 358.799 62.2168C358.799 61.8001 358.617 61.4453 358.252 61.1523C357.894 60.8529 357.191 60.5013 356.143 60.0977C355.146 59.7266 354.437 59.4043 354.014 59.1309C353.597 58.8509 353.285 58.5352 353.076 58.1836C352.874 57.832 352.773 57.4121 352.773 56.9238C352.773 56.0514 353.128 55.3646 353.838 54.8633C354.548 54.3555 355.521 54.1016 356.758 54.1016C357.91 54.1016 359.036 54.3359 360.137 54.8047L359.561 56.123C358.486 55.6803 357.513 55.459 356.641 55.459C355.872 55.459 355.293 55.5794 354.902 55.8203C354.512 56.0612 354.316 56.3932 354.316 56.8164C354.316 57.1029 354.388 57.347 354.531 57.5488C354.681 57.7507 354.919 57.9427 355.244 58.125C355.57 58.3073 356.195 58.571 357.119 58.916C358.389 59.3783 359.245 59.8438 359.688 60.3125C360.137 60.7812 360.361 61.3704 360.361 62.0801Z" fill="#050038"/>
<defs>
<filter id="filter0_d" x="0" y="0" width="580" height="340" filterUnits="userSpaceOnUse" color-interpolation-filters="sRGB">
<feFlood flood-opacity="0" result="BackgroundImageFix"/>
<feColorMatrix in="SourceAlpha" type="matrix" values="0 0 0 0 0 0 0 0 0 0 0 0 0 0 0 0 0 0 127 0"/>
<feOffset dy="8"/>
<feGaussianBlur stdDeviation="10"/>
<feColorMatrix type="matrix" values="0 0 0 0 0 0 0 0 0 0 0 0 0 0 0 0 0 0 0.2 0"/>
<feBlend mode="normal" in2="BackgroundImageFix" result="effect1_dropShadow"/>
<feBlend mode="normal" in="SourceGraphic" in2="effect1_dropShadow" result="shape"/>
</filter>
</defs>
</svg>
